<svg width="197" height="75" viewBox="0 0 197 75" fill="none" xmlns="http://www.w3.org/2000/svg">
<rect width="197" height="75" rx="4" fill="black"/>
<path d="M61 28H57.4091V16.3636H61.1591C62.2879 16.3636 63.2538 16.5966 64.0568 17.0625C64.8598 17.5246 65.4754 18.1894 65.9034 19.0568C66.3314 19.9205 66.5455 20.9545 66.5455 22.1591C66.5455 23.3712 66.3295 24.4148 65.8977 25.2898C65.4659 26.161 64.8371 26.8314 64.0114 27.3011C63.1856 27.767 62.1818 28 61 28ZM58.8182 26.75H60.9091C61.8712 26.75 62.6686 26.5644 63.3011 26.1932C63.9337 25.822 64.4053 25.2936 64.7159 24.608C65.0265 23.9223 65.1818 23.1061 65.1818 22.1591C65.1818 21.2197 65.0284 20.411 64.7216 19.733C64.4148 19.0511 63.9564 18.5284 63.3466 18.1648C62.7367 17.7973 61.9773 17.6136 61.0682 17.6136H58.8182V26.75ZM72.2727 28.1818C71.4848 28.1818 70.7936 27.9943 70.1989 27.6193C69.608 27.2443 69.1458 26.7197 68.8125 26.0455C68.483 25.3712 68.3182 24.5833 68.3182 23.6818C68.3182 22.7727 68.483 21.9792 68.8125 21.3011C69.1458 20.6231 69.608 20.0966 70.1989 19.7216C70.7936 19.3466 71.4848 19.1591 72.2727 19.1591C73.0606 19.1591 73.75 19.3466 74.3409 19.7216C74.9356 20.0966 75.3977 20.6231 75.7273 21.3011C76.0606 21.9792 76.2273 22.7727 76.2273 23.6818C76.2273 24.5833 76.0606 25.3712 75.7273 26.0455C75.3977 26.7197 74.9356 27.2443 74.3409 27.6193C73.75 27.9943 73.0606 28.1818 72.2727 28.1818ZM72.2727 26.9773C72.8712 26.9773 73.3636 26.8239 73.75 26.517C74.1364 26.2102 74.4223 25.8068 74.608 25.3068C74.7936 24.8068 74.8864 24.2652 74.8864 23.6818C74.8864 23.0985 74.7936 22.5549 74.608 22.0511C74.4223 21.5473 74.1364 21.1402 73.75 20.8295C73.3636 20.5189 72.8712 20.3636 72.2727 20.3636C71.6742 20.3636 71.1818 20.5189 70.7955 20.8295C70.4091 21.1402 70.1231 21.5473 69.9375 22.0511C69.7519 22.5549 69.6591 23.0985 69.6591 23.6818C69.6591 24.2652 69.7519 24.8068 69.9375 25.3068C70.1231 25.8068 70.4091 26.2102 70.7955 26.517C71.1818 26.8239 71.6742 26.9773 72.2727 26.9773ZM79.9545 28L77.2955 19.2727H78.7045L80.5909 25.9545H80.6818L82.5455 19.2727H83.9773L85.8182 25.9318H85.9091L87.7955 19.2727H89.2045L86.5455 28H85.2273L83.3182 21.2955H83.1818L81.2727 28H79.9545ZM92.3182 22.75V28H90.9773V19.2727H92.2727V20.6364H92.3864C92.5909 20.1932 92.9015 19.8371 93.3182 19.5682C93.7348 19.2955 94.2727 19.1591 94.9318 19.1591C95.5227 19.1591 96.0398 19.2803 96.483 19.5227C96.9261 19.7614 97.2708 20.125 97.517 20.6136C97.7633 21.0985 97.8864 21.7121 97.8864 22.4545V28H96.5455V22.5455C96.5455 21.8598 96.3674 21.3258 96.0114 20.9432C95.6553 20.5568 95.1667 20.3636 94.5455 20.3636C94.1174 20.3636 93.7348 20.4564 93.3977 20.642C93.0644 20.8277 92.8011 21.0985 92.608 21.4545C92.4148 21.8106 92.3182 22.2424 92.3182 22.75ZM101.678 16.3636V28H100.337V16.3636H101.678ZM107.679 28.1818C106.891 28.1818 106.2 27.9943 105.605 27.6193C105.014 27.2443 104.552 26.7197 104.219 26.0455C103.889 25.3712 103.724 24.5833 103.724 23.6818C103.724 22.7727 103.889 21.9792 104.219 21.3011C104.552 20.6231 105.014 20.0966 105.605 19.7216C106.2 19.3466 106.891 19.1591 107.679 19.1591C108.467 19.1591 109.156 19.3466 109.747 19.7216C110.342 20.0966 110.804 20.6231 111.134 21.3011C111.467 21.9792 111.634 22.7727 111.634 23.6818C111.634 24.5833 111.467 25.3712 111.134 26.0455C110.804 26.7197 110.342 27.2443 109.747 27.6193C109.156 27.9943 108.467 28.1818 107.679 28.1818ZM107.679 26.9773C108.277 26.9773 108.77 26.8239 109.156 26.517C109.543 26.2102 109.829 25.8068 110.014 25.3068C110.2 24.8068 110.293 24.2652 110.293 23.6818C110.293 23.0985 110.2 22.5549 110.014 22.0511C109.829 21.5473 109.543 21.1402 109.156 20.8295C108.77 20.5189 108.277 20.3636 107.679 20.3636C107.08 20.3636 106.588 20.5189 106.202 20.8295C105.815 21.1402 105.529 21.5473 105.344 22.0511C105.158 22.5549 105.065 23.0985 105.065 23.6818C105.065 24.2652 105.158 24.8068 105.344 25.3068C105.529 25.8068 105.815 26.2102 106.202 26.517C106.588 26.8239 107.08 26.9773 107.679 26.9773ZM116.249 28.2045C115.696 28.2045 115.194 28.1004 114.743 27.892C114.292 27.6799 113.934 27.375 113.669 26.9773C113.404 26.5758 113.271 26.0909 113.271 25.5227C113.271 25.0227 113.37 24.6174 113.567 24.3068C113.764 23.9924 114.027 23.7462 114.357 23.5682C114.686 23.3902 115.05 23.2576 115.447 23.1705C115.849 23.0795 116.252 23.0076 116.658 22.9545C117.188 22.8864 117.618 22.8352 117.947 22.8011C118.281 22.7633 118.523 22.7008 118.675 22.6136C118.83 22.5265 118.908 22.375 118.908 22.1591V22.1136C118.908 21.553 118.754 21.1174 118.447 20.8068C118.144 20.4962 117.684 20.3409 117.067 20.3409C116.427 20.3409 115.925 20.4811 115.561 20.7614C115.197 21.0417 114.942 21.3409 114.794 21.6591L113.521 21.2045C113.749 20.6742 114.052 20.2614 114.43 19.9659C114.813 19.6667 115.23 19.4583 115.68 19.3409C116.135 19.2197 116.582 19.1591 117.021 19.1591C117.302 19.1591 117.624 19.1932 117.987 19.2614C118.355 19.3258 118.709 19.4602 119.05 19.6648C119.394 19.8693 119.68 20.178 119.908 20.5909C120.135 21.0038 120.249 21.5568 120.249 22.25V28H118.908V26.8182H118.839C118.749 27.0076 118.597 27.2102 118.385 27.4261C118.173 27.642 117.891 27.8258 117.538 27.9773C117.186 28.1288 116.756 28.2045 116.249 28.2045ZM116.453 27C116.983 27 117.43 26.8958 117.794 26.6875C118.161 26.4792 118.438 26.2102 118.624 25.8807C118.813 25.5511 118.908 25.2045 118.908 24.8409V23.6136C118.851 23.6818 118.726 23.7443 118.533 23.8011C118.343 23.8542 118.124 23.9015 117.874 23.9432C117.627 23.9811 117.387 24.0152 117.152 24.0455C116.921 24.072 116.733 24.0947 116.589 24.1136C116.241 24.1591 115.915 24.233 115.612 24.3352C115.313 24.4337 115.071 24.5833 114.885 24.7841C114.703 24.9811 114.612 25.25 114.612 25.5909C114.612 26.0568 114.785 26.4091 115.129 26.6477C115.478 26.8826 115.919 27 116.453 27ZM125.991 28.1818C125.264 28.1818 124.622 27.9981 124.065 27.6307C123.509 27.2595 123.073 26.7367 122.759 26.0625C122.444 25.3845 122.287 24.5833 122.287 23.6591C122.287 22.7424 122.444 21.947 122.759 21.2727C123.073 20.5985 123.51 20.0777 124.071 19.7102C124.632 19.3428 125.279 19.1591 126.014 19.1591C126.582 19.1591 127.031 19.2538 127.361 19.4432C127.694 19.6288 127.948 19.8409 128.122 20.0795C128.3 20.3144 128.438 20.5076 128.537 20.6591H128.651V16.3636H129.991V28H128.696V26.6591H128.537C128.438 26.8182 128.298 27.0189 128.116 27.2614C127.935 27.5 127.675 27.714 127.338 27.9034C127.001 28.089 126.552 28.1818 125.991 28.1818ZM126.173 26.9773C126.711 26.9773 127.166 26.8371 127.537 26.5568C127.908 26.2727 128.19 25.8807 128.384 25.3807C128.577 24.8769 128.673 24.2955 128.673 23.6364C128.673 22.9848 128.579 22.4148 128.389 21.9261C128.2 21.4337 127.92 21.0511 127.548 20.7784C127.177 20.5019 126.719 20.3636 126.173 20.3636C125.605 20.3636 125.132 20.5095 124.753 20.8011C124.378 21.089 124.096 21.4811 123.906 21.9773C123.721 22.4697 123.628 23.0227 123.628 23.6364C123.628 24.2576 123.723 24.822 123.912 25.3295C124.105 25.8333 124.389 26.2348 124.764 26.5341C125.143 26.8295 125.613 26.9773 126.173 26.9773ZM140.679 28.1818C139.891 28.1818 139.2 27.9943 138.605 27.6193C138.014 27.2443 137.552 26.7197 137.219 26.0455C136.889 25.3712 136.724 24.5833 136.724 23.6818C136.724 22.7727 136.889 21.9792 137.219 21.3011C137.552 20.6231 138.014 20.0966 138.605 19.7216C139.2 19.3466 139.891 19.1591 140.679 19.1591C141.467 19.1591 142.156 19.3466 142.747 19.7216C143.342 20.0966 143.804 20.6231 144.134 21.3011C144.467 21.9792 144.634 22.7727 144.634 23.6818C144.634 24.5833 144.467 25.3712 144.134 26.0455C143.804 26.7197 143.342 27.2443 142.747 27.6193C142.156 27.9943 141.467 28.1818 140.679 28.1818ZM140.679 26.9773C141.277 26.9773 141.77 26.8239 142.156 26.517C142.543 26.2102 142.829 25.8068 143.014 25.3068C143.2 24.8068 143.293 24.2652 143.293 23.6818C143.293 23.0985 143.2 22.5549 143.014 22.0511C142.829 21.5473 142.543 21.1402 142.156 20.8295C141.77 20.5189 141.277 20.3636 140.679 20.3636C140.08 20.3636 139.588 20.5189 139.202 20.8295C138.815 21.1402 138.529 21.5473 138.344 22.0511C138.158 22.5549 138.065 23.0985 138.065 23.6818C138.065 24.2652 138.158 24.8068 138.344 25.3068C138.529 25.8068 138.815 26.2102 139.202 26.517C139.588 26.8239 140.08 26.9773 140.679 26.9773ZM148.021 22.75V28H146.68V19.2727H147.976V20.6364H148.089C148.294 20.1932 148.605 19.8371 149.021 19.5682C149.438 19.2955 149.976 19.1591 150.635 19.1591C151.226 19.1591 151.743 19.2803 152.186 19.5227C152.629 19.7614 152.974 20.125 153.22 20.6136C153.466 21.0985 153.589 21.7121 153.589 22.4545V28H152.249V22.5455C152.249 21.8598 152.071 21.3258 151.714 20.9432C151.358 20.5568 150.87 20.3636 150.249 20.3636C149.821 20.3636 149.438 20.4564 149.101 20.642C148.768 20.8277 148.504 21.0985 148.311 21.4545C148.118 21.8106 148.021 22.2424 148.021 22.75ZM164.335 19.2727V20.4091H159.812V19.2727H164.335ZM161.131 17.1818H162.472V25.5C162.472 25.8788 162.527 26.1629 162.636 26.3523C162.75 26.5379 162.894 26.6629 163.068 26.7273C163.246 26.7879 163.434 26.8182 163.631 26.8182C163.778 26.8182 163.9 26.8106 163.994 26.7955C164.089 26.7765 164.165 26.7614 164.222 26.75L164.494 27.9545C164.403 27.9886 164.277 28.0227 164.114 28.0568C163.951 28.0947 163.744 28.1136 163.494 28.1136C163.116 28.1136 162.744 28.0322 162.381 27.8693C162.021 27.7064 161.722 27.4583 161.483 27.125C161.248 26.7917 161.131 26.3712 161.131 25.8636V17.1818ZM167.881 22.75V28H166.54V16.3636H167.881V20.6364H167.994C168.199 20.1856 168.506 19.8277 168.915 19.5625C169.328 19.2936 169.877 19.1591 170.562 19.1591C171.157 19.1591 171.678 19.2784 172.125 19.517C172.572 19.7519 172.919 20.1136 173.165 20.6023C173.415 21.0871 173.54 21.7045 173.54 22.4545V28H172.199V22.5455C172.199 21.8523 172.019 21.3163 171.659 20.9375C171.303 20.5549 170.809 20.3636 170.176 20.3636C169.737 20.3636 169.343 20.4564 168.994 20.642C168.65 20.8277 168.377 21.0985 168.176 21.4545C167.979 21.8106 167.881 22.2424 167.881 22.75ZM179.652 28.1818C178.811 28.1818 178.086 27.9962 177.476 27.625C176.87 27.25 176.402 26.7273 176.072 26.0568C175.747 25.3826 175.584 24.5985 175.584 23.7045C175.584 22.8106 175.747 22.0227 176.072 21.3409C176.402 20.6553 176.86 20.1212 177.447 19.7386C178.038 19.3523 178.728 19.1591 179.516 19.1591C179.97 19.1591 180.419 19.2348 180.862 19.3864C181.305 19.5379 181.709 19.7841 182.072 20.125C182.436 20.4621 182.726 20.9091 182.942 21.4659C183.158 22.0227 183.266 22.7083 183.266 23.5227V24.0909H176.538V22.9318H181.902C181.902 22.4394 181.804 22 181.607 21.6136C181.413 21.2273 181.137 20.9223 180.777 20.6989C180.421 20.4754 180 20.3636 179.516 20.3636C178.982 20.3636 178.519 20.4962 178.129 20.7614C177.743 21.0227 177.446 21.3636 177.237 21.7841C177.029 22.2045 176.925 22.6553 176.925 23.1364V23.9091C176.925 24.5682 177.038 25.1269 177.266 25.5852C177.497 26.0398 177.817 26.3864 178.226 26.625C178.635 26.8598 179.11 26.9773 179.652 26.9773C180.004 26.9773 180.322 26.928 180.607 26.8295C180.894 26.7273 181.143 26.5758 181.351 26.375C181.559 26.1705 181.72 25.9167 181.834 25.6136L183.129 25.9773C182.993 26.4167 182.764 26.803 182.442 27.1364C182.12 27.4659 181.722 27.7235 181.249 27.9091C180.775 28.0909 180.243 28.1818 179.652 28.1818Z" fill="#D9D9D9"/>
<path d="M60.1282 57H56.6126L63.0135 38.8182H67.0795L73.4893 57H69.9737L65.1175 42.5469H64.9755L60.1282 57ZM60.2436 49.8711H69.8317V52.5167H60.2436V49.8711ZM75.7421 62.1136V43.3636H78.9026V45.6186H79.089C79.2548 45.2872 79.4885 44.935 79.7904 44.5621C80.0922 44.1834 80.5006 43.8608 81.0155 43.5945C81.5305 43.3222 82.1874 43.1861 82.9864 43.1861C84.0399 43.1861 84.9898 43.4554 85.8362 43.994C86.6885 44.5266 87.3632 45.3168 87.8604 46.3643C88.3634 47.406 88.615 48.6844 88.615 50.1996C88.615 51.697 88.3693 52.9695 87.8781 54.017C87.3869 55.0646 86.7181 55.8636 85.8717 56.4141C85.0254 56.9645 84.0666 57.2397 82.9953 57.2397C82.214 57.2397 81.566 57.1095 81.051 56.8491C80.5361 56.5887 80.1218 56.275 79.8081 55.908C79.5004 55.5352 79.2607 55.183 79.089 54.8516H78.9559V62.1136H75.7421ZM78.8937 50.1818C78.8937 51.0637 79.018 51.8361 79.2666 52.4989C79.5211 53.1618 79.8851 53.6797 80.3586 54.0526C80.838 54.4195 81.418 54.603 82.0986 54.603C82.8089 54.603 83.4037 54.4136 83.8831 54.0348C84.3625 53.6501 84.7235 53.1263 84.9662 52.4634C85.2148 51.7946 85.339 51.0341 85.339 50.1818C85.339 49.3355 85.2177 48.5838 84.9751 47.9268C84.7324 47.2699 84.3714 46.755 83.892 46.3821C83.4126 46.0092 82.8148 45.8228 82.0986 45.8228C81.4121 45.8228 80.8291 46.0033 80.3497 46.3643C79.8703 46.7254 79.5063 47.2314 79.2577 47.8825C79.0151 48.5335 78.8937 49.3 78.8937 50.1818ZM91.3671 62.1136V43.3636H94.5276V45.6186H94.714C94.8798 45.2872 95.1135 44.935 95.4154 44.5621C95.7172 44.1834 96.1256 43.8608 96.6405 43.5945C97.1555 43.3222 97.8124 43.1861 98.6114 43.1861C99.6649 43.1861 100.615 43.4554 101.461 43.994C102.313 44.5266 102.988 45.3168 103.485 46.3643C103.988 47.406 104.24 48.6844 104.24 50.1996C104.24 51.697 103.994 52.9695 103.503 54.017C103.012 55.0646 102.343 55.8636 101.497 56.4141C100.65 56.9645 99.6916 57.2397 98.6203 57.2397C97.839 57.2397 97.191 57.1095 96.676 56.8491C96.1611 56.5887 95.7468 56.275 95.4331 55.908C95.1254 55.5352 94.8857 55.183 94.714 54.8516H94.5809V62.1136H91.3671ZM94.5187 50.1818C94.5187 51.0637 94.643 51.8361 94.8916 52.4989C95.1461 53.1618 95.5101 53.6797 95.9836 54.0526C96.463 54.4195 97.043 54.603 97.7236 54.603C98.4339 54.603 99.0287 54.4136 99.5081 54.0348C99.9875 53.6501 100.349 53.1263 100.591 52.4634C100.84 51.7946 100.964 51.0341 100.964 50.1818C100.964 49.3355 100.843 48.5838 100.6 47.9268C100.357 47.2699 99.9964 46.755 99.517 46.3821C99.0376 46.0092 98.4398 45.8228 97.7236 45.8228C97.0371 45.8228 96.4541 46.0033 95.9747 46.3643C95.4953 46.7254 95.1313 47.2314 94.8827 47.8825C94.6401 48.5335 94.5187 49.3 94.5187 50.1818ZM123.216 43.8164C123.133 43.0411 122.784 42.4374 122.169 42.0053C121.559 41.5733 120.766 41.3572 119.79 41.3572C119.103 41.3572 118.514 41.4608 118.023 41.668C117.532 41.8751 117.156 42.1562 116.895 42.5114C116.635 42.8665 116.502 43.2719 116.496 43.7276C116.496 44.1064 116.582 44.4349 116.753 44.7131C116.931 44.9912 117.171 45.228 117.472 45.4233C117.774 45.6127 118.109 45.7725 118.476 45.9027C118.843 46.0329 119.212 46.1424 119.585 46.2312L121.29 46.6573C121.976 46.8171 122.636 47.0331 123.27 47.3054C123.909 47.5777 124.48 47.9209 124.983 48.3352C125.492 48.7495 125.895 49.2496 126.19 49.8356C126.486 50.4215 126.634 51.1081 126.634 51.8952C126.634 52.9606 126.362 53.8987 125.818 54.7095C125.273 55.5144 124.486 56.1448 123.456 56.6005C122.432 57.0503 121.192 57.2752 119.736 57.2752C118.322 57.2752 117.094 57.0562 116.052 56.6183C115.016 56.1803 114.205 55.5411 113.619 54.7006C113.039 53.8602 112.726 52.8363 112.678 51.6289H115.919C115.966 52.2622 116.161 52.7889 116.505 53.2092C116.848 53.6294 117.295 53.9431 117.845 54.1502C118.402 54.3574 119.023 54.4609 119.71 54.4609C120.426 54.4609 121.053 54.3544 121.592 54.1413C122.136 53.9223 122.562 53.6205 122.87 53.2358C123.178 52.8452 123.335 52.3894 123.341 51.8686C123.335 51.3951 123.196 51.0045 122.923 50.6967C122.651 50.383 122.269 50.1226 121.778 49.9155C121.293 49.7024 120.725 49.513 120.074 49.3473L118.005 48.8146C116.508 48.4299 115.324 47.8469 114.454 47.0657C113.59 46.2785 113.158 45.2339 113.158 43.9318C113.158 42.8606 113.448 41.9225 114.028 41.1175C114.614 40.3126 115.41 39.6882 116.416 39.2443C117.422 38.7945 118.561 38.5696 119.834 38.5696C121.124 38.5696 122.255 38.7945 123.225 39.2443C124.202 39.6882 124.968 40.3067 125.525 41.0998C126.081 41.887 126.368 42.7925 126.386 43.8164H123.216ZM136.238 43.3636V45.8494H128.399V43.3636H136.238ZM130.334 40.0966H133.548V52.8984C133.548 53.3305 133.613 53.6619 133.743 53.8928C133.879 54.1177 134.057 54.2715 134.276 54.3544C134.495 54.4373 134.738 54.4787 135.004 54.4787C135.205 54.4787 135.389 54.4639 135.554 54.4343C135.726 54.4047 135.856 54.3781 135.945 54.3544L136.487 56.8668C136.315 56.926 136.069 56.9911 135.75 57.0621C135.436 57.1332 135.051 57.1746 134.596 57.1864C133.791 57.2101 133.066 57.0888 132.42 56.8224C131.775 56.5502 131.263 56.13 130.885 55.5618C130.512 54.9936 130.328 54.2834 130.334 53.4311V40.0966ZM144.727 57.2663C143.396 57.2663 142.242 56.9734 141.265 56.3874C140.288 55.8015 139.531 54.9818 138.992 53.9283C138.46 52.8748 138.193 51.6437 138.193 50.2351C138.193 48.8265 138.46 47.5924 138.992 46.533C139.531 45.4736 140.288 44.6509 141.265 44.065C142.242 43.479 143.396 43.1861 144.727 43.1861C146.059 43.1861 147.213 43.479 148.19 44.065C149.166 44.6509 149.921 45.4736 150.454 46.533C150.992 47.5924 151.261 48.8265 151.261 50.2351C151.261 51.6437 150.992 52.8748 150.454 53.9283C149.921 54.9818 149.166 55.8015 148.19 56.3874C147.213 56.9734 146.059 57.2663 144.727 57.2663ZM144.745 54.6918C145.467 54.6918 146.071 54.4935 146.556 54.0969C147.042 53.6945 147.403 53.1559 147.639 52.4812C147.882 51.8065 148.003 51.0548 148.003 50.2262C148.003 49.3917 147.882 48.6371 147.639 47.9624C147.403 47.2817 147.042 46.7402 146.556 46.3377C146.071 45.9353 145.467 45.734 144.745 45.734C144.005 45.734 143.39 45.9353 142.899 46.3377C142.413 46.7402 142.049 47.2817 141.807 47.9624C141.57 48.6371 141.451 49.3917 141.451 50.2262C141.451 51.0548 141.57 51.8065 141.807 52.4812C142.049 53.1559 142.413 53.6945 142.899 54.0969C143.39 54.4935 144.005 54.6918 144.745 54.6918ZM153.989 57V43.3636H157.105V45.6364H157.247C157.496 44.8492 157.922 44.2425 158.526 43.8164C159.135 43.3844 159.831 43.1683 160.612 43.1683C160.79 43.1683 160.988 43.1772 161.207 43.195C161.432 43.2068 161.618 43.2275 161.766 43.2571V46.2134C161.63 46.1661 161.414 46.1246 161.118 46.0891C160.828 46.0477 160.547 46.027 160.275 46.027C159.689 46.027 159.162 46.1542 158.694 46.4087C158.233 46.6573 157.869 47.0036 157.602 47.4474C157.336 47.8913 157.203 48.4033 157.203 48.9833V57H153.989ZM169.377 57.2663C168.009 57.2663 166.829 56.9822 165.834 56.4141C164.846 55.84 164.085 55.0291 163.553 53.9815C163.02 52.928 162.754 51.6881 162.754 50.2617C162.754 48.859 163.02 47.628 163.553 46.5685C164.091 45.5032 164.843 44.6746 165.808 44.0827C166.773 43.485 167.906 43.1861 169.208 43.1861C170.048 43.1861 170.842 43.3222 171.587 43.5945C172.339 43.8608 173.002 44.2751 173.576 44.8374C174.156 45.3996 174.612 46.1158 174.943 46.9858C175.275 47.8499 175.44 48.8797 175.44 50.0753V51.0607H164.263V48.8945H172.36C172.354 48.279 172.221 47.7315 171.96 47.2521C171.7 46.7668 171.336 46.3851 170.868 46.1069C170.407 45.8287 169.868 45.6896 169.252 45.6896C168.595 45.6896 168.018 45.8494 167.521 46.169C167.024 46.4827 166.636 46.897 166.358 47.4119C166.086 47.9209 165.947 48.4802 165.941 49.0898V50.9808C165.941 51.7739 166.086 52.4545 166.376 53.0227C166.666 53.585 167.071 54.017 167.592 54.3189C168.113 54.6148 168.723 54.7628 169.421 54.7628C169.889 54.7628 170.312 54.6977 170.691 54.5675C171.069 54.4313 171.398 54.2331 171.676 53.9727C171.954 53.7122 172.164 53.3897 172.306 53.005L175.307 53.3423C175.118 54.1354 174.757 54.8279 174.224 55.4197C173.697 56.0057 173.023 56.4614 172.2 56.7869C171.377 57.1065 170.436 57.2663 169.377 57.2663Z" fill="white"/>
<path d="M41.5208 55.25C39.4792 57.2292 37.25 56.9167 35.1042 55.9792C32.8333 55.0208 30.75 54.9792 28.3542 55.9792C25.3542 57.2708 23.7708 56.8958 21.9792 55.25C11.8125 44.7708 13.3125 28.8125 24.8542 28.2292C27.6667 28.375 29.625 29.7708 31.2708 29.8958C33.7292 29.3958 36.0833 27.9583 38.7083 28.1458C41.8542 28.3958 44.2292 29.6458 45.7917 31.8958C39.2917 35.7917 40.8333 44.3542 46.7917 46.75C45.6042 49.875 44.0625 52.9792 41.5 55.2708L41.5208 55.25ZM31.0625 28.1042C30.75 23.4583 34.5208 19.625 38.8542 19.25C39.4583 24.625 33.9792 28.625 31.0625 28.1042Z" fill="white"/>
</svg>
