<svg width="331" height="172" viewBox="0 0 331 172" fill="none" xmlns="http://www.w3.org/2000/svg">
<g filter="url(#filter0_d_140_1839)">
<rect x="32" y="24" width="267" height="108" rx="12" fill="white"/>
<path d="M69.208 63.14C68.2887 63.14 67.493 62.937 66.821 62.531C66.1537 62.1203 65.638 61.53 65.274 60.76C64.9147 59.9853 64.735 59.052 64.735 57.96C64.735 56.8587 64.917 55.9207 65.281 55.146C65.6497 54.3667 66.1677 53.7717 66.835 53.361C67.507 52.9457 68.298 52.738 69.208 52.738C70.1133 52.738 70.8973 52.9457 71.56 53.361C72.2273 53.7717 72.7407 54.3667 73.1 55.146C73.464 55.9207 73.646 56.8587 73.646 57.96C73.646 59.052 73.4663 59.983 73.107 60.753C72.7477 61.523 72.2343 62.1133 71.567 62.524C70.9043 62.9347 70.118 63.14 69.208 63.14ZM69.208 61.859C69.796 61.859 70.2977 61.7237 70.713 61.453C71.133 61.1823 71.4527 60.76 71.672 60.186C71.8913 59.612 72.001 58.877 72.001 57.981C72.001 57.0617 71.889 56.3103 71.665 55.727C71.4457 55.1437 71.126 54.7143 70.706 54.439C70.2907 54.159 69.7913 54.019 69.208 54.019C68.6247 54.019 68.1207 54.159 67.696 54.439C67.276 54.719 66.9517 55.1507 66.723 55.734C66.4943 56.3173 66.38 57.0663 66.38 57.981C66.38 58.8817 66.4943 59.619 66.723 60.193C66.9517 60.7623 67.276 61.1823 67.696 61.453C68.1207 61.7237 68.6247 61.859 69.208 61.859ZM75.2689 63V55.762H76.7039V57.246C76.8252 56.8913 76.9932 56.595 77.2079 56.357C77.4272 56.1143 77.6816 55.9323 77.9709 55.811C78.2602 55.685 78.5659 55.622 78.8879 55.622C78.9859 55.622 79.0792 55.629 79.1679 55.643C79.2566 55.6523 79.3266 55.671 79.3779 55.699V57.141C79.3172 57.113 79.2379 57.0943 79.1399 57.085C79.0466 57.0757 78.9649 57.0687 78.8949 57.064C78.5776 57.0407 78.2882 57.057 78.0269 57.113C77.7656 57.169 77.5392 57.2623 77.3479 57.393C77.1612 57.5237 77.0166 57.694 76.9139 57.904C76.8159 58.114 76.7669 58.3613 76.7669 58.646V63H75.2689ZM83.281 63.14C82.329 63.14 81.58 62.8157 81.034 62.167C80.488 61.5137 80.215 60.5733 80.215 59.346C80.215 58.5947 80.3246 57.9413 80.544 57.386C80.7633 56.826 81.09 56.392 81.524 56.084C81.9626 55.776 82.504 55.622 83.148 55.622C83.4746 55.622 83.764 55.6617 84.016 55.741C84.2726 55.8203 84.4966 55.923 84.688 56.049C84.884 56.175 85.045 56.3103 85.171 56.455C85.3016 56.5997 85.402 56.735 85.472 56.861V52.598H86.977V63H85.857L85.689 61.516C85.6376 61.6747 85.5583 61.8473 85.451 62.034C85.3436 62.2207 85.1966 62.398 85.01 62.566C84.828 62.734 84.5946 62.8717 84.31 62.979C84.0253 63.0863 83.6823 63.14 83.281 63.14ZM83.568 62.013C84.24 62.013 84.7253 61.803 85.024 61.383C85.3226 60.9583 85.472 60.263 85.472 59.297C85.4673 58.751 85.3996 58.289 85.269 57.911C85.1383 57.533 84.9353 57.2483 84.66 57.057C84.3893 56.861 84.0323 56.763 83.589 56.763C83.0336 56.763 82.581 56.9637 82.231 57.365C81.881 57.7617 81.706 58.4057 81.706 59.297C81.706 60.1743 81.8646 60.8463 82.182 61.313C82.504 61.7797 82.966 62.013 83.568 62.013ZM90.1431 59.731C90.1431 60.165 90.2131 60.5547 90.3531 60.9C90.4978 61.2407 90.7148 61.5113 91.0041 61.712C91.2935 61.908 91.6528 62.006 92.0821 62.006C92.5115 62.006 92.8825 61.908 93.1951 61.712C93.5125 61.516 93.7201 61.2243 93.8181 60.837H95.2041C95.1201 61.3317 94.9218 61.7517 94.6091 62.097C94.3011 62.4423 93.9278 62.7037 93.4891 62.881C93.0505 63.0537 92.5908 63.14 92.1101 63.14C91.4241 63.14 90.8198 62.993 90.2971 62.699C89.7745 62.4003 89.3661 61.9757 89.0721 61.425C88.7828 60.8743 88.6381 60.2187 88.6381 59.458C88.6381 58.7067 88.7711 58.044 89.0371 57.47C89.3031 56.8913 89.6881 56.4387 90.1921 56.112C90.6961 55.7853 91.3028 55.622 92.0121 55.622C92.7121 55.622 93.3001 55.7713 93.7761 56.07C94.2568 56.3687 94.6208 56.7887 94.8681 57.33C95.1155 57.8667 95.2391 58.5013 95.2391 59.234V59.731H90.1431ZM90.1431 58.758H93.8111C93.8111 58.38 93.7458 58.037 93.6151 57.729C93.4845 57.4163 93.2838 57.1713 93.0131 56.994C92.7471 56.812 92.4111 56.721 92.0051 56.721C91.5898 56.721 91.2445 56.8213 90.9691 57.022C90.6938 57.2227 90.4861 57.4793 90.3461 57.792C90.2108 58.1047 90.1431 58.4267 90.1431 58.758ZM96.9115 63V55.762H98.3465V57.246C98.4678 56.8913 98.6358 56.595 98.8505 56.357C99.0698 56.1143 99.3242 55.9323 99.6135 55.811C99.9028 55.685 100.208 55.622 100.53 55.622C100.628 55.622 100.722 55.629 100.81 55.643C100.899 55.6523 100.969 55.671 101.02 55.699V57.141C100.96 57.113 100.88 57.0943 100.782 57.085C100.689 57.0757 100.607 57.0687 100.537 57.064C100.22 57.0407 99.9308 57.057 99.6695 57.113C99.4082 57.169 99.1818 57.2623 98.9905 57.393C98.8038 57.5237 98.6592 57.694 98.5565 57.904C98.4585 58.114 98.4095 58.3613 98.4095 58.646V63H96.9115ZM105.02 63.14C104.516 63.14 104.042 63.0607 103.599 62.902C103.16 62.7433 102.791 62.4937 102.493 62.153C102.199 61.8123 102.014 61.376 101.94 60.844H103.277C103.337 61.1193 103.452 61.348 103.62 61.53C103.792 61.7073 103.998 61.8403 104.236 61.929C104.478 62.013 104.737 62.055 105.013 62.055C105.47 62.055 105.839 61.9733 106.119 61.81C106.403 61.642 106.546 61.3853 106.546 61.04C106.546 60.7927 106.469 60.5943 106.315 60.445C106.165 60.2957 105.927 60.186 105.601 60.116L104.159 59.773C103.561 59.633 103.083 59.4113 102.724 59.108C102.364 58.8 102.182 58.3707 102.178 57.82C102.178 57.3953 102.283 57.0173 102.493 56.686C102.707 56.3547 103.025 56.0957 103.445 55.909C103.865 55.7177 104.387 55.622 105.013 55.622C105.829 55.622 106.485 55.804 106.98 56.168C107.474 56.532 107.731 57.0593 107.75 57.75H106.455C106.408 57.4187 106.256 57.1597 106 56.973C105.748 56.7817 105.414 56.686 104.999 56.686C104.569 56.686 104.217 56.7723 103.942 56.945C103.666 57.113 103.529 57.372 103.529 57.722C103.529 57.96 103.629 58.149 103.83 58.289C104.03 58.4243 104.331 58.5363 104.733 58.625L106.105 58.968C106.459 59.0613 106.751 59.185 106.98 59.339C107.208 59.4883 107.388 59.654 107.519 59.836C107.649 60.018 107.74 60.207 107.792 60.403C107.848 60.599 107.876 60.7833 107.876 60.956C107.876 61.4133 107.759 61.8053 107.526 62.132C107.297 62.454 106.968 62.7037 106.539 62.881C106.114 63.0537 105.608 63.14 105.02 63.14Z" fill="#8E95A9"/>
<path d="M71.212 98.264C70.196 98.264 69.244 98.068 68.356 97.676C67.468 97.284 66.736 96.728 66.16 96.008C65.584 95.288 65.248 94.44 65.152 93.464H67.948C68.116 94.192 68.48 94.784 69.04 95.24C69.6 95.688 70.288 95.912 71.104 95.912C72.024 95.912 72.82 95.684 73.492 95.228C74.172 94.772 74.68 94.056 75.016 93.08C75.352 92.104 75.476 90.836 75.388 89.276C75.172 89.788 74.856 90.236 74.44 90.62C74.032 91.004 73.544 91.304 72.976 91.52C72.416 91.728 71.792 91.832 71.104 91.832C69.944 91.832 68.916 91.612 68.02 91.172C67.132 90.724 66.436 90.088 65.932 89.264C65.428 88.432 65.176 87.448 65.176 86.312C65.176 85.16 65.432 84.14 65.944 83.252C66.464 82.364 67.192 81.668 68.128 81.164C69.072 80.66 70.18 80.408 71.452 80.408C72.868 80.408 74.092 80.756 75.124 81.452C76.156 82.148 76.948 83.14 77.5 84.428C78.06 85.716 78.34 87.244 78.34 89.012C78.34 91.028 78.056 92.724 77.488 94.1C76.928 95.468 76.116 96.504 75.052 97.208C73.996 97.912 72.716 98.264 71.212 98.264ZM71.536 89.456C72.096 89.456 72.632 89.328 73.144 89.072C73.656 88.816 74.076 88.484 74.404 88.076C74.732 87.668 74.896 87.236 74.896 86.78C74.904 85.948 74.768 85.228 74.488 84.62C74.208 84.004 73.812 83.528 73.3 83.192C72.796 82.848 72.204 82.676 71.524 82.676C70.908 82.676 70.356 82.824 69.868 83.12C69.388 83.416 69.012 83.828 68.74 84.356C68.468 84.876 68.332 85.48 68.332 86.168C68.332 87.192 68.616 87.996 69.184 88.58C69.752 89.164 70.536 89.456 71.536 89.456ZM80.8379 98V96.44V95.636C80.8379 94.748 81.0019 93.984 81.3299 93.344C81.6579 92.696 82.0939 92.132 82.6379 91.652C83.1819 91.172 83.7779 90.748 84.4259 90.38C85.0819 90.004 85.7299 89.652 86.3699 89.324C87.0179 88.988 87.6139 88.644 88.1579 88.292C88.7019 87.932 89.1379 87.532 89.4659 87.092C89.8019 86.652 89.9699 86.128 89.9699 85.52C89.9699 84.744 89.6939 84.112 89.1419 83.624C88.5979 83.128 87.8579 82.88 86.9219 82.88C85.9299 82.88 85.1099 83.164 84.4619 83.732C83.8219 84.3 83.4419 85.1 83.3219 86.132H80.4899C80.5059 85.076 80.7579 84.116 81.2459 83.252C81.7339 82.388 82.4579 81.7 83.4179 81.188C84.3779 80.668 85.5739 80.408 87.0059 80.408C88.2459 80.408 89.3139 80.624 90.2099 81.056C91.1139 81.48 91.8099 82.076 92.2979 82.844C92.7939 83.604 93.0419 84.492 93.0419 85.508C93.0419 86.396 92.8779 87.156 92.5499 87.788C92.2299 88.42 91.8019 88.968 91.2659 89.432C90.7379 89.888 90.1539 90.292 89.5139 90.644C88.8819 90.996 88.2459 91.328 87.6059 91.64C86.9739 91.944 86.3899 92.264 85.8539 92.6C85.3259 92.928 84.8979 93.304 84.5699 93.728C84.2499 94.152 84.0899 94.66 84.0899 95.252V95.504H93.0779V98H80.8379ZM101.806 80.408C103.79 80.408 105.358 81.172 106.51 82.7C107.67 84.22 108.25 86.44 108.25 89.36C108.25 92.264 107.674 94.476 106.522 95.996C105.378 97.508 103.802 98.264 101.794 98.264C99.7864 98.264 98.2064 97.508 97.0544 95.996C95.9104 94.484 95.3384 92.28 95.3384 89.384C95.3384 87.432 95.6024 85.792 96.1304 84.464C96.6584 83.128 97.4064 82.12 98.3744 81.44C99.3424 80.752 100.486 80.408 101.806 80.408ZM101.806 95.828C102.934 95.828 103.774 95.328 104.326 94.328C104.878 93.328 105.154 91.676 105.154 89.372C105.154 87.02 104.874 85.332 104.314 84.308C103.754 83.284 102.914 82.772 101.794 82.772C100.674 82.772 99.8264 83.288 99.2504 84.32C98.6824 85.352 98.3984 87.036 98.3984 89.372C98.3984 91.668 98.6824 93.32 99.2504 94.328C99.8264 95.328 100.678 95.828 101.806 95.828Z" fill="#1C2A53"/>
<path d="M231.648 56.162V57.653H225.033V56.162H231.648ZM229.093 60.208H227.602V53.593H229.093V60.208ZM240.647 51.878H242.656V58.045H244.217V59.76H242.656V62H240.689L240.696 59.76H236.034V58.08L240.647 51.878ZM237.924 58.045H240.696V54.335L237.924 58.045ZM248.952 62.154C248.322 62.154 247.734 62.0327 247.188 61.79C246.642 61.5473 246.196 61.2067 245.851 60.768C245.506 60.3247 245.312 59.8067 245.27 59.214H247.216C247.3 59.606 247.487 59.9257 247.776 60.173C248.065 60.4157 248.429 60.537 248.868 60.537C249.353 60.537 249.778 60.4227 250.142 60.194C250.511 59.9653 250.786 59.6013 250.968 59.102C251.155 58.6027 251.22 57.9493 251.164 57.142C251.033 57.3893 250.851 57.6063 250.618 57.793C250.389 57.975 250.121 58.1173 249.813 58.22C249.505 58.318 249.162 58.367 248.784 58.367C248.098 58.367 247.489 58.2387 246.957 57.982C246.43 57.7207 246.014 57.352 245.711 56.876C245.412 56.3953 245.263 55.826 245.263 55.168C245.263 54.5053 245.422 53.915 245.739 53.397C246.056 52.879 246.5 52.473 247.069 52.179C247.638 51.885 248.306 51.738 249.071 51.738C249.93 51.738 250.669 51.9433 251.29 52.354C251.915 52.76 252.394 53.3387 252.725 54.09C253.061 54.8367 253.229 55.7163 253.229 56.729C253.229 57.9377 253.056 58.9457 252.711 59.753C252.37 60.5557 251.88 61.1577 251.241 61.559C250.602 61.9557 249.839 62.154 248.952 62.154ZM249.134 56.743C249.419 56.743 249.694 56.68 249.96 56.554C250.231 56.4233 250.452 56.26 250.625 56.064C250.798 55.868 250.884 55.665 250.884 55.455C250.889 55.0023 250.816 54.615 250.667 54.293C250.522 53.9663 250.317 53.7167 250.051 53.544C249.79 53.3713 249.484 53.285 249.134 53.285C248.812 53.285 248.525 53.3597 248.273 53.509C248.021 53.6583 247.823 53.8683 247.678 54.139C247.533 54.4097 247.461 54.7223 247.461 55.077C247.461 55.6043 247.615 56.015 247.923 56.309C248.231 56.5983 248.635 56.743 249.134 56.743ZM257.061 51.724C257.541 51.724 257.973 51.8523 258.356 52.109C258.738 52.3657 259.042 52.7133 259.266 53.152C259.49 53.5907 259.602 54.0807 259.602 54.622C259.602 55.1587 259.492 55.6417 259.273 56.071C259.053 56.5003 258.75 56.841 258.363 57.093C257.98 57.3403 257.546 57.464 257.061 57.464C256.575 57.464 256.139 57.3403 255.752 57.093C255.364 56.841 255.059 56.5003 254.835 56.071C254.611 55.6417 254.499 55.1587 254.499 54.622C254.499 54.0807 254.611 53.5907 254.835 53.152C255.063 52.7133 255.371 52.3657 255.759 52.109C256.146 51.8523 256.58 51.724 257.061 51.724ZM257.047 56.428C257.415 56.428 257.681 56.2693 257.845 55.952C258.013 55.63 258.097 55.1867 258.097 54.622C258.097 54.0387 258.01 53.5813 257.838 53.25C257.665 52.9187 257.401 52.753 257.047 52.753C256.813 52.753 256.62 52.83 256.466 52.984C256.312 53.1333 256.195 53.348 256.116 53.628C256.041 53.908 256.004 54.2393 256.004 54.622C256.004 55.182 256.088 55.623 256.256 55.945C256.424 56.267 256.687 56.428 257.047 56.428ZM263.704 56.386C264.184 56.386 264.616 56.5167 264.999 56.778C265.386 57.0347 265.692 57.3823 265.916 57.821C266.14 58.2597 266.252 58.7473 266.252 59.284C266.252 59.8207 266.142 60.306 265.923 60.74C265.703 61.1693 265.4 61.51 265.013 61.762C264.63 62.014 264.194 62.14 263.704 62.14C263.214 62.14 262.775 62.014 262.388 61.762C262 61.51 261.695 61.1693 261.471 60.74C261.247 60.306 261.135 59.8207 261.135 59.284C261.135 58.7473 261.247 58.2597 261.471 57.821C261.699 57.3823 262.007 57.0347 262.395 56.778C262.787 56.5167 263.223 56.386 263.704 56.386ZM263.69 61.083C263.928 61.083 264.124 61.0107 264.278 60.866C264.432 60.7213 264.546 60.516 264.621 60.25C264.7 59.9793 264.74 59.662 264.74 59.298C264.74 58.9107 264.7 58.5793 264.621 58.304C264.541 58.024 264.425 57.8093 264.271 57.66C264.117 57.506 263.923 57.429 263.69 57.429C263.456 57.429 263.263 57.506 263.109 57.66C262.959 57.8093 262.845 58.024 262.766 58.304C262.691 58.584 262.654 58.9153 262.654 59.298C262.654 59.662 262.691 59.9793 262.766 60.25C262.84 60.516 262.955 60.7213 263.109 60.866C263.263 61.0107 263.456 61.083 263.69 61.083ZM264.285 51.766L257.481 62.056L256.277 62.035L263.102 51.766H264.285Z" fill="#279F51"/>
<g filter="url(#filter1_d_140_1839)">
<path d="M196 101.315C198.012 102.15 203.384 102.089 208.771 95.1671C215.505 86.5143 221.774 88.7913 229.204 98.5827C236.635 108.374 241.743 113.156 249.406 99.7213C257.068 86.2866 257.997 81.7325 271 79" stroke="#279F51" stroke-width="3"/>
</g>
<circle cx="259" cy="83" r="5" fill="#279F51"/>
</g>
<defs>
<filter id="filter0_d_140_1839" x="0" y="0" width="331" height="172" filterUnits="userSpaceOnUse" color-interpolation-filters="sRGB">
<feFlood flood-opacity="0" result="BackgroundImageFix"/>
<feColorMatrix in="SourceAlpha" type="matrix" values="0 0 0 0 0 0 0 0 0 0 0 0 0 0 0 0 0 0 127 0" result="hardAlpha"/>
<feOffset dy="8"/>
<feGaussianBlur stdDeviation="16"/>
<feColorMatrix type="matrix" values="0 0 0 0 0.2 0 0 0 0 0.14902 0 0 0 0 0.682353 0 0 0 0.08 0"/>
<feBlend mode="normal" in2="BackgroundImageFix" result="effect1_dropShadow_140_1839"/>
<feBlend mode="normal" in="SourceGraphic" in2="effect1_dropShadow_140_1839" result="shape"/>
</filter>
<filter id="filter1_d_140_1839" x="191.426" y="77.5322" width="83.8828" height="39.9683" filterUnits="userSpaceOnUse" color-interpolation-filters="sRGB">
<feFlood flood-opacity="0" result="BackgroundImageFix"/>
<feColorMatrix in="SourceAlpha" type="matrix" values="0 0 0 0 0 0 0 0 0 0 0 0 0 0 0 0 0 0 127 0" result="hardAlpha"/>
<feOffset dy="4"/>
<feGaussianBlur stdDeviation="2"/>
<feColorMatrix type="matrix" values="0 0 0 0 0.129412 0 0 0 0 0.588235 0 0 0 0 0.32549 0 0 0 0.16 0"/>
<feBlend mode="normal" in2="BackgroundImageFix" result="effect1_dropShadow_140_1839"/>
<feBlend mode="normal" in="SourceGraphic" in2="effect1_dropShadow_140_1839" result="shape"/>
</filter>
</defs>
</svg>
