<svg width="197" height="75" viewBox="0 0 197 75" fill="none" xmlns="http://www.w3.org/2000/svg">
<rect width="197" height="75" rx="4" fill="black"/>
<g clip-path="url(#clip0_140_1665)">
<path d="M30.878 37.1157L15.1406 53.7854C15.3174 54.4186 15.6349 55.0025 16.0691 55.4926C16.5033 55.9827 17.0425 56.366 17.6457 56.6131C18.2488 56.8601 18.8998 56.9646 19.5489 56.9183C20.1981 56.872 20.8282 56.6763 21.391 56.3461L39.0985 46.1501L30.878 37.1157Z" fill="#EA4335"/>
<path d="M46.7922 34.2825L39.1349 29.8481L30.5156 37.4951L39.17 46.1264L46.769 41.7396C47.4421 41.3832 48.006 40.8474 48.3994 40.1901C48.7928 39.5328 49.0008 38.7792 49.0008 38.011C49.0008 37.2427 48.7928 36.4891 48.3994 35.8318C48.006 35.1746 47.4421 34.6387 46.769 34.2823L46.7922 34.2825Z" fill="#FBBC04"/>
<path d="M15.1408 22.1538C15.0457 22.5093 14.9983 22.8762 15 23.2445V52.6948C15.001 53.063 15.0483 53.4295 15.1408 53.7857L31.4177 37.5429L15.1408 22.1538Z" fill="#4285F4"/>
<path d="M30.9952 37.9697L39.1337 29.8483L21.4497 19.6047C20.7844 19.2107 20.0277 19.0021 19.2566 19C17.3432 18.9962 15.661 20.2802 15.1406 22.1419L30.9952 37.9697Z" fill="#34A853"/>
</g>
<path d="M66.3636 20C66.2386 19.6174 66.0739 19.2746 65.8693 18.9716C65.6686 18.6648 65.428 18.4034 65.1477 18.1875C64.8712 17.9716 64.5568 17.8068 64.2045 17.6932C63.8523 17.5795 63.4659 17.5227 63.0455 17.5227C62.3561 17.5227 61.7292 17.7008 61.1648 18.0568C60.6004 18.4129 60.1515 18.9375 59.8182 19.6307C59.4848 20.3239 59.3182 21.1742 59.3182 22.1818C59.3182 23.1894 59.4867 24.0398 59.8239 24.733C60.161 25.4261 60.6174 25.9508 61.1932 26.3068C61.7689 26.6629 62.4167 26.8409 63.1364 26.8409C63.803 26.8409 64.3902 26.6989 64.8977 26.4148C65.4091 26.1269 65.8068 25.7216 66.0909 25.1989C66.3788 24.6723 66.5227 24.053 66.5227 23.3409L66.9545 23.4318H63.4545V22.1818H67.8864V23.4318C67.8864 24.3902 67.6818 25.2235 67.2727 25.9318C66.8674 26.6402 66.3068 27.1894 65.5909 27.5795C64.8788 27.9659 64.0606 28.1591 63.1364 28.1591C62.1061 28.1591 61.2008 27.9167 60.4205 27.4318C59.6439 26.947 59.0379 26.2576 58.6023 25.3636C58.1705 24.4697 57.9545 23.4091 57.9545 22.1818C57.9545 21.2614 58.0777 20.4337 58.3239 19.6989C58.5739 18.9602 58.9261 18.3314 59.3807 17.8125C59.8352 17.2936 60.3731 16.8958 60.9943 16.6193C61.6155 16.3428 62.2992 16.2045 63.0455 16.2045C63.6591 16.2045 64.2311 16.2973 64.7614 16.483C65.2955 16.6648 65.7708 16.9242 66.1875 17.2614C66.608 17.5947 66.9583 17.9943 67.2386 18.4602C67.5189 18.9223 67.7121 19.4356 67.8182 20H66.3636ZM73.777 28.1818C72.9361 28.1818 72.2107 27.9962 71.6009 27.625C70.9948 27.25 70.527 26.7273 70.1974 26.0568C69.8717 25.3826 69.7088 24.5985 69.7088 23.7045C69.7088 22.8106 69.8717 22.0227 70.1974 21.3409C70.527 20.6553 70.9853 20.1212 71.5724 19.7386C72.1634 19.3523 72.8527 19.1591 73.6406 19.1591C74.0952 19.1591 74.544 19.2348 74.9872 19.3864C75.4304 19.5379 75.8338 19.7841 76.1974 20.125C76.5611 20.4621 76.8509 20.9091 77.0668 21.4659C77.2827 22.0227 77.3906 22.7083 77.3906 23.5227V24.0909H70.6634V22.9318H76.027C76.027 22.4394 75.9285 22 75.7315 21.6136C75.5384 21.2273 75.2618 20.9223 74.902 20.6989C74.5459 20.4754 74.1255 20.3636 73.6406 20.3636C73.1065 20.3636 72.6444 20.4962 72.2543 20.7614C71.8679 21.0227 71.5705 21.3636 71.3622 21.7841C71.1539 22.2045 71.0497 22.6553 71.0497 23.1364V23.9091C71.0497 24.5682 71.1634 25.1269 71.3906 25.5852C71.6217 26.0398 71.9418 26.3864 72.3509 26.625C72.7599 26.8598 73.2353 26.9773 73.777 26.9773C74.1293 26.9773 74.4474 26.928 74.7315 26.8295C75.0194 26.7273 75.2675 26.5758 75.4759 26.375C75.6842 26.1705 75.8452 25.9167 75.9588 25.6136L77.2543 25.9773C77.1179 26.4167 76.8887 26.803 76.5668 27.1364C76.2448 27.4659 75.8471 27.7235 75.3736 27.9091C74.9001 28.0909 74.3679 28.1818 73.777 28.1818ZM83.2259 19.2727V20.4091H78.7031V19.2727H83.2259ZM80.0213 17.1818H81.3622V25.5C81.3622 25.8788 81.4171 26.1629 81.527 26.3523C81.6406 26.5379 81.7846 26.6629 81.9588 26.7273C82.1368 26.7879 82.3243 26.8182 82.5213 26.8182C82.669 26.8182 82.7902 26.8106 82.8849 26.7955C82.9796 26.7765 83.0554 26.7614 83.1122 26.75L83.3849 27.9545C83.294 27.9886 83.1671 28.0227 83.0043 28.0568C82.8414 28.0947 82.6349 28.1136 82.3849 28.1136C82.0062 28.1136 81.6349 28.0322 81.2713 27.8693C80.9115 27.7064 80.6122 27.4583 80.3736 27.125C80.1387 26.7917 80.0213 26.3712 80.0213 25.8636V17.1818ZM89.7429 28V19.2727H91.0838V28H89.7429ZM90.4247 17.8182C90.1634 17.8182 89.938 17.7292 89.7486 17.5511C89.563 17.3731 89.4702 17.1591 89.4702 16.9091C89.4702 16.6591 89.563 16.4451 89.7486 16.267C89.938 16.089 90.1634 16 90.4247 16C90.6861 16 90.9096 16.089 91.0952 16.267C91.2846 16.4451 91.3793 16.6591 91.3793 16.9091C91.3793 17.1591 91.2846 17.3731 91.0952 17.5511C90.9096 17.7292 90.6861 17.8182 90.4247 17.8182ZM97.3352 19.2727V20.4091H92.8125V19.2727H97.3352ZM94.1307 17.1818H95.4716V25.5C95.4716 25.8788 95.5265 26.1629 95.6364 26.3523C95.75 26.5379 95.8939 26.6629 96.0682 26.7273C96.2462 26.7879 96.4337 26.8182 96.6307 26.8182C96.7784 26.8182 96.8996 26.8106 96.9943 26.7955C97.089 26.7765 97.1648 26.7614 97.2216 26.75L97.4943 27.9545C97.4034 27.9886 97.2765 28.0227 97.1136 28.0568C96.9508 28.0947 96.7443 28.1136 96.4943 28.1136C96.1155 28.1136 95.7443 28.0322 95.3807 27.8693C95.0208 27.7064 94.7216 27.4583 94.483 27.125C94.2481 26.7917 94.1307 26.3712 94.1307 25.8636V17.1818ZM107.398 28.1818C106.61 28.1818 105.919 27.9943 105.324 27.6193C104.733 27.2443 104.271 26.7197 103.938 26.0455C103.608 25.3712 103.443 24.5833 103.443 23.6818C103.443 22.7727 103.608 21.9792 103.938 21.3011C104.271 20.6231 104.733 20.0966 105.324 19.7216C105.919 19.3466 106.61 19.1591 107.398 19.1591C108.186 19.1591 108.875 19.3466 109.466 19.7216C110.061 20.0966 110.523 20.6231 110.852 21.3011C111.186 21.9792 111.352 22.7727 111.352 23.6818C111.352 24.5833 111.186 25.3712 110.852 26.0455C110.523 26.7197 110.061 27.2443 109.466 27.6193C108.875 27.9943 108.186 28.1818 107.398 28.1818ZM107.398 26.9773C107.996 26.9773 108.489 26.8239 108.875 26.517C109.261 26.2102 109.547 25.8068 109.733 25.3068C109.919 24.8068 110.011 24.2652 110.011 23.6818C110.011 23.0985 109.919 22.5549 109.733 22.0511C109.547 21.5473 109.261 21.1402 108.875 20.8295C108.489 20.5189 107.996 20.3636 107.398 20.3636C106.799 20.3636 106.307 20.5189 105.92 20.8295C105.534 21.1402 105.248 21.5473 105.062 22.0511C104.877 22.5549 104.784 23.0985 104.784 23.6818C104.784 24.2652 104.877 24.8068 105.062 25.3068C105.248 25.8068 105.534 26.2102 105.92 26.517C106.307 26.8239 106.799 26.9773 107.398 26.9773ZM114.74 22.75V28H113.399V19.2727H114.695V20.6364H114.808C115.013 20.1932 115.323 19.8371 115.74 19.5682C116.157 19.2955 116.695 19.1591 117.354 19.1591C117.945 19.1591 118.462 19.2803 118.905 19.5227C119.348 19.7614 119.693 20.125 119.939 20.6136C120.185 21.0985 120.308 21.7121 120.308 22.4545V28H118.967V22.5455C118.967 21.8598 118.789 21.3258 118.433 20.9432C118.077 20.5568 117.589 20.3636 116.967 20.3636C116.539 20.3636 116.157 20.4564 115.82 20.642C115.486 20.8277 115.223 21.0985 115.03 21.4545C114.837 21.8106 114.74 22.2424 114.74 22.75Z" fill="#D9D9D9"/>
<path d="M69.2969 46.1094C69.1667 45.6875 68.987 45.3099 68.7578 44.9766C68.5339 44.638 68.263 44.349 67.9453 44.1094C67.6328 43.8698 67.2734 43.6901 66.8672 43.5703C66.4609 43.4453 66.0182 43.3828 65.5391 43.3828C64.6797 43.3828 63.9141 43.599 63.2422 44.0313C62.5703 44.4635 62.0417 45.099 61.6563 45.9375C61.276 46.7708 61.0859 47.7865 61.0859 48.9844C61.0859 50.1927 61.276 51.2161 61.6563 52.0547C62.0365 52.8932 62.5651 53.5312 63.2422 53.9687C63.9193 54.401 64.7057 54.6172 65.6016 54.6172C66.4141 54.6172 67.1172 54.4609 67.7109 54.1484C68.3099 53.8359 68.7708 53.3932 69.0938 52.8203C69.4167 52.2422 69.5781 51.5651 69.5781 50.7891L70.2344 50.8906H65.8906V48.625H72.3828V50.5469C72.3828 51.9167 72.0911 53.1016 71.5078 54.1016C70.9245 55.1016 70.1224 55.8724 69.1016 56.4141C68.0807 56.9505 66.9089 57.2187 65.5859 57.2187C64.112 57.2187 62.8177 56.888 61.7031 56.2266C60.5938 55.5599 59.7266 54.6146 59.1016 53.3906C58.4818 52.1615 58.1719 50.7031 58.1719 49.0156C58.1719 47.724 58.3542 46.5703 58.7188 45.5547C59.0885 44.5391 59.6042 43.6771 60.2656 42.9687C60.9271 42.2552 61.7031 41.7135 62.5938 41.3437C63.4844 40.9687 64.4531 40.7812 65.5 40.7812C66.3854 40.7812 67.2109 40.9115 67.9766 41.1719C68.7422 41.4271 69.4219 41.7917 70.0156 42.2656C70.6146 42.7396 71.1068 43.3021 71.4922 43.9531C71.8776 44.6042 72.1302 45.3229 72.25 46.1094H69.2969ZM80.2949 57.2344C79.123 57.2344 78.1074 56.9766 77.248 56.4609C76.3887 55.9453 75.722 55.224 75.248 54.2969C74.7793 53.3698 74.5449 52.2865 74.5449 51.0469C74.5449 49.8073 74.7793 48.7214 75.248 47.7891C75.722 46.8568 76.3887 46.1328 77.248 45.6172C78.1074 45.1016 79.123 44.8438 80.2949 44.8438C81.4668 44.8438 82.4824 45.1016 83.3418 45.6172C84.2012 46.1328 84.8652 46.8568 85.334 47.7891C85.8079 48.7214 86.0449 49.8073 86.0449 51.0469C86.0449 52.2865 85.8079 53.3698 85.334 54.2969C84.8652 55.224 84.2012 55.9453 83.3418 56.4609C82.4824 56.9766 81.4668 57.2344 80.2949 57.2344ZM80.3105 54.9687C80.946 54.9687 81.4772 54.7943 81.9043 54.4453C82.3314 54.0911 82.6491 53.6172 82.8574 53.0234C83.071 52.4297 83.1777 51.7682 83.1777 51.0391C83.1777 50.3047 83.071 49.6406 82.8574 49.0469C82.6491 48.4479 82.3314 47.9714 81.9043 47.6172C81.4772 47.263 80.946 47.0859 80.3105 47.0859C79.6595 47.0859 79.1178 47.263 78.6855 47.6172C78.2585 47.9714 77.9382 48.4479 77.7246 49.0469C77.5163 49.6406 77.4121 50.3047 77.4121 51.0391C77.4121 51.7682 77.5163 52.4297 77.7246 53.0234C77.9382 53.6172 78.2585 54.0911 78.6855 54.4453C79.1178 54.7943 79.6595 54.9687 80.3105 54.9687ZM93.6797 57.2344C92.5078 57.2344 91.4922 56.9766 90.6328 56.4609C89.7734 55.9453 89.1068 55.224 88.6328 54.2969C88.1641 53.3698 87.9297 52.2865 87.9297 51.0469C87.9297 49.8073 88.1641 48.7214 88.6328 47.7891C89.1068 46.8568 89.7734 46.1328 90.6328 45.6172C91.4922 45.1016 92.5078 44.8438 93.6797 44.8438C94.8516 44.8438 95.8672 45.1016 96.7266 45.6172C97.5859 46.1328 98.25 46.8568 98.7187 47.7891C99.1927 48.7214 99.4297 49.8073 99.4297 51.0469C99.4297 52.2865 99.1927 53.3698 98.7187 54.2969C98.25 55.224 97.5859 55.9453 96.7266 56.4609C95.8672 56.9766 94.8516 57.2344 93.6797 57.2344ZM93.6953 54.9687C94.3307 54.9687 94.862 54.7943 95.2891 54.4453C95.7161 54.0911 96.0339 53.6172 96.2422 53.0234C96.4557 52.4297 96.5625 51.7682 96.5625 51.0391C96.5625 50.3047 96.4557 49.6406 96.2422 49.0469C96.0339 48.4479 95.7161 47.9714 95.2891 47.6172C94.862 47.263 94.3307 47.0859 93.6953 47.0859C93.0443 47.0859 92.5026 47.263 92.0703 47.6172C91.6432 47.9714 91.3229 48.4479 91.1094 49.0469C90.901 49.6406 90.7969 50.3047 90.7969 51.0391C90.7969 51.7682 90.901 52.4297 91.1094 53.0234C91.3229 53.6172 91.6432 54.0911 92.0703 54.4453C92.5026 54.7943 93.0443 54.9687 93.6953 54.9687ZM107.049 61.75C106.033 61.75 105.161 61.612 104.432 61.3359C103.702 61.0651 103.117 60.7005 102.674 60.2422C102.231 59.7839 101.924 59.276 101.752 58.7188L104.299 58.1016C104.413 58.3359 104.58 58.5677 104.799 58.7969C105.018 59.0313 105.312 59.224 105.682 59.375C106.057 59.5313 106.528 59.6094 107.096 59.6094C107.898 59.6094 108.562 59.4141 109.088 59.0234C109.614 58.638 109.877 58.0026 109.877 57.1172V54.8437H109.736C109.59 55.1354 109.377 55.4349 109.096 55.7422C108.82 56.0495 108.452 56.3073 107.994 56.5156C107.541 56.724 106.971 56.8281 106.283 56.8281C105.361 56.8281 104.525 56.612 103.775 56.1797C103.031 55.7422 102.437 55.0911 101.994 54.2266C101.557 53.3568 101.338 52.2682 101.338 50.9609C101.338 49.6432 101.557 48.5312 101.994 47.625C102.437 46.7135 103.033 46.0234 103.783 45.5547C104.533 45.0807 105.369 44.8438 106.291 44.8438C106.994 44.8438 107.572 44.9635 108.025 45.2031C108.484 45.4375 108.848 45.7214 109.119 46.0547C109.39 46.3828 109.596 46.6927 109.736 46.9844H109.893V45H112.682V57.1953C112.682 58.2214 112.437 59.0703 111.947 59.7422C111.458 60.4141 110.788 60.9167 109.939 61.25C109.09 61.5833 108.127 61.75 107.049 61.75ZM107.072 54.6094C107.671 54.6094 108.182 54.4635 108.604 54.1719C109.025 53.8802 109.346 53.4609 109.564 52.9141C109.783 52.3672 109.893 51.7109 109.893 50.9453C109.893 50.1901 109.783 49.5286 109.564 48.9609C109.351 48.3932 109.033 47.9531 108.611 47.6406C108.195 47.3229 107.682 47.1641 107.072 47.1641C106.442 47.1641 105.916 47.3281 105.494 47.6562C105.072 47.9844 104.755 48.4349 104.541 49.0078C104.327 49.5755 104.221 50.2214 104.221 50.9453C104.221 51.6797 104.327 52.3229 104.541 52.875C104.76 53.4219 105.08 53.849 105.502 54.1562C105.929 54.4583 106.452 54.6094 107.072 54.6094ZM118.408 41V57H115.58V41H118.408ZM126.629 57.2344C125.426 57.2344 124.387 56.9844 123.512 56.4844C122.642 55.9792 121.973 55.2656 121.504 54.3437C121.035 53.4167 120.801 52.3255 120.801 51.0703C120.801 49.8359 121.035 48.7526 121.504 47.8203C121.978 46.8828 122.639 46.1536 123.488 45.6328C124.337 45.1068 125.335 44.8438 126.48 44.8438C127.22 44.8438 127.918 44.9635 128.574 45.2031C129.236 45.4375 129.819 45.8021 130.324 46.2969C130.835 46.7917 131.236 47.4219 131.527 48.1875C131.819 48.9479 131.965 49.8542 131.965 50.9062V51.7734H122.129V49.8672H129.254C129.249 49.3255 129.132 48.8437 128.902 48.4219C128.673 47.9948 128.353 47.6589 127.941 47.4141C127.535 47.1693 127.061 47.0469 126.52 47.0469C125.941 47.0469 125.434 47.1875 124.996 47.4687C124.559 47.7448 124.217 48.1094 123.973 48.5625C123.733 49.0104 123.611 49.5026 123.605 50.0391V51.7031C123.605 52.401 123.733 53 123.988 53.5C124.243 53.9948 124.6 54.375 125.059 54.6406C125.517 54.901 126.053 55.0312 126.668 55.0312C127.079 55.0312 127.452 54.974 127.785 54.8594C128.118 54.7396 128.408 54.5651 128.652 54.3359C128.897 54.1068 129.082 53.8229 129.207 53.4844L131.848 53.7812C131.681 54.4792 131.363 55.0885 130.895 55.6094C130.431 56.125 129.837 56.526 129.113 56.8125C128.389 57.0937 127.561 57.2344 126.629 57.2344ZM139.939 57V41H145.939C147.169 41 148.2 41.2292 149.033 41.6875C149.872 42.1458 150.505 42.776 150.932 43.5781C151.364 44.375 151.58 45.2812 151.58 46.2969C151.58 47.3229 151.364 48.2344 150.932 49.0313C150.499 49.8281 149.861 50.4557 149.018 50.9141C148.174 51.3672 147.135 51.5937 145.9 51.5937H141.924V49.2109H145.51C146.229 49.2109 146.817 49.0859 147.275 48.8359C147.734 48.5859 148.072 48.2422 148.291 47.8047C148.515 47.3672 148.627 46.8646 148.627 46.2969C148.627 45.7292 148.515 45.2292 148.291 44.7969C148.072 44.3646 147.731 44.0286 147.268 43.7891C146.809 43.5443 146.218 43.4219 145.494 43.4219H142.838V57H139.939ZM156.801 41V57H153.973V41H156.801ZM163.162 57.2422C162.402 57.2422 161.717 57.1068 161.107 56.8359C160.503 56.5599 160.024 56.1536 159.67 55.6172C159.321 55.0807 159.146 54.4193 159.146 53.6328C159.146 52.9557 159.271 52.3958 159.521 51.9531C159.771 51.5104 160.113 51.1562 160.545 50.8906C160.977 50.625 161.464 50.4245 162.006 50.2891C162.553 50.1484 163.118 50.0469 163.701 49.9844C164.404 49.9115 164.975 49.8464 165.412 49.7891C165.85 49.7266 166.167 49.6328 166.365 49.5078C166.568 49.3776 166.67 49.1771 166.67 48.9062V48.8594C166.67 48.2708 166.495 47.8151 166.146 47.4922C165.798 47.1693 165.295 47.0078 164.639 47.0078C163.946 47.0078 163.396 47.1589 162.99 47.4609C162.589 47.763 162.318 48.1198 162.178 48.5312L159.537 48.1562C159.745 47.4271 160.089 46.8177 160.568 46.3281C161.048 45.8333 161.633 45.4635 162.326 45.2187C163.019 44.9688 163.785 44.8438 164.623 44.8438C165.201 44.8438 165.777 44.9115 166.35 45.0469C166.923 45.1823 167.446 45.4062 167.92 45.7187C168.394 46.026 168.774 46.4453 169.061 46.9766C169.352 47.5078 169.498 48.1719 169.498 48.9687V57H166.779V55.3516H166.686C166.514 55.6849 166.271 55.9974 165.959 56.2891C165.652 56.5755 165.264 56.8073 164.795 56.9844C164.331 57.1563 163.787 57.2422 163.162 57.2422ZM163.896 55.1641C164.464 55.1641 164.956 55.0521 165.373 54.8281C165.79 54.599 166.11 54.2969 166.334 53.9219C166.563 53.5469 166.678 53.138 166.678 52.6953V51.2812C166.589 51.3542 166.438 51.4219 166.225 51.4844C166.016 51.5469 165.782 51.6016 165.521 51.6484C165.261 51.6953 165.003 51.737 164.748 51.7734C164.493 51.8099 164.271 51.8411 164.084 51.8672C163.662 51.9245 163.285 52.0182 162.951 52.1484C162.618 52.2786 162.355 52.4609 162.162 52.6953C161.969 52.9245 161.873 53.2214 161.873 53.5859C161.873 54.1068 162.063 54.5 162.443 54.7656C162.824 55.0312 163.308 55.1641 163.896 55.1641ZM173.67 61.5C173.285 61.5 172.928 61.4688 172.6 61.4063C172.277 61.349 172.019 61.2813 171.826 61.2031L172.482 59C172.894 59.1198 173.261 59.1771 173.584 59.1719C173.907 59.1667 174.191 59.0651 174.436 58.8672C174.686 58.6745 174.896 58.3516 175.068 57.8984L175.311 57.25L170.959 45H173.959L176.725 54.0625H176.85L179.623 45H182.631L177.826 58.4531C177.602 59.0885 177.305 59.6328 176.936 60.0859C176.566 60.5443 176.113 60.8932 175.576 61.1328C175.045 61.3776 174.41 61.5 173.67 61.5Z" fill="white"/>
<defs>
<clipPath id="clip0_140_1665">
<rect width="34" height="38" fill="white" transform="translate(15 19)"/>
</clipPath>
</defs>
</svg>
