<svg width="262" height="162" viewBox="0 0 262 162" fill="none" xmlns="http://www.w3.org/2000/svg">
<g filter="url(#filter0_d_140_1845)">
<rect x="10" y="8" width="238" height="138" rx="8" fill="white"/>
</g>
<path d="M102.419 65.9043V67.0563L89.135 67.0653V65.9133L102.419 65.9043ZM102.419 69.4593V70.6113L89.135 70.6203V69.4683L102.419 69.4593ZM99.53 61.9533H101.717V74.9673H99.746L93.203 65.4183V74.9673H91.016V61.9533H93.158L99.53 71.2503V61.9533ZM107.576 65.8593C107.576 64.9713 107.789 64.2243 108.215 63.6183C108.641 63.0063 109.211 62.5473 109.925 62.2413C110.645 61.9293 111.443 61.7733 112.319 61.7733C113.261 61.7733 114.095 61.9023 114.821 62.1603C115.553 62.4123 116.126 62.7933 116.54 63.3033C116.96 63.8133 117.17 64.4463 117.17 65.2023C117.17 65.8443 116.975 66.4173 116.585 66.9213C116.195 67.4253 115.58 67.8213 114.74 68.1093C115.262 68.2533 115.73 68.4693 116.144 68.7573C116.558 69.0393 116.885 69.3933 117.125 69.8193C117.371 70.2453 117.494 70.7463 117.494 71.3223C117.494 71.9403 117.359 72.4893 117.089 72.9693C116.825 73.4493 116.453 73.8543 115.973 74.1843C115.499 74.5083 114.944 74.7543 114.308 74.9223C113.672 75.0843 112.988 75.1653 112.256 75.1653C111.278 75.1593 110.435 74.9913 109.727 74.6613C109.019 74.3313 108.467 73.8603 108.071 73.2483C107.681 72.6363 107.477 71.9103 107.459 71.0703H109.592C109.718 71.8443 110.024 72.4203 110.51 72.7983C111.002 73.1703 111.599 73.3563 112.301 73.3563C112.883 73.3563 113.387 73.2693 113.813 73.0953C114.239 72.9153 114.566 72.6693 114.794 72.3573C115.028 72.0453 115.145 71.6823 115.145 71.2683C115.145 70.8303 115.019 70.4553 114.767 70.1433C114.521 69.8313 114.182 69.5913 113.75 69.4233C113.318 69.2553 112.832 69.1653 112.292 69.1533L111.086 69.1173V67.3353L112.202 67.2903C112.718 67.2723 113.171 67.1733 113.561 66.9933C113.957 66.8133 114.266 66.5763 114.488 66.2823C114.71 65.9883 114.821 65.6583 114.821 65.2923C114.821 64.9563 114.716 64.6533 114.506 64.3833C114.302 64.1133 114.011 63.9033 113.633 63.7533C113.255 63.5973 112.808 63.5193 112.292 63.5193C111.854 63.5193 111.443 63.5973 111.059 63.7533C110.675 63.9093 110.357 64.1613 110.105 64.5093C109.859 64.8513 109.724 65.3013 109.7 65.8593H107.576ZM119.177 65.8593C119.177 64.9713 119.39 64.2243 119.816 63.6183C120.242 63.0063 120.812 62.5473 121.526 62.2413C122.246 61.9293 123.044 61.7733 123.92 61.7733C124.862 61.7733 125.696 61.9023 126.422 62.1603C127.154 62.4123 127.727 62.7933 128.141 63.3033C128.561 63.8133 128.771 64.4463 128.771 65.2023C128.771 65.8443 128.576 66.4173 128.186 66.9213C127.796 67.4253 127.181 67.8213 126.341 68.1093C126.863 68.2533 127.331 68.4693 127.745 68.7573C128.159 69.0393 128.486 69.3933 128.726 69.8193C128.972 70.2453 129.095 70.7463 129.095 71.3223C129.095 71.9403 128.96 72.4893 128.69 72.9693C128.426 73.4493 128.054 73.8543 127.574 74.1843C127.1 74.5083 126.545 74.7543 125.909 74.9223C125.273 75.0843 124.589 75.1653 123.857 75.1653C122.879 75.1593 122.036 74.9913 121.328 74.6613C120.62 74.3313 120.068 73.8603 119.672 73.2483C119.282 72.6363 119.078 71.9103 119.06 71.0703H121.193C121.319 71.8443 121.625 72.4203 122.111 72.7983C122.603 73.1703 123.2 73.3563 123.902 73.3563C124.484 73.3563 124.988 73.2693 125.414 73.0953C125.84 72.9153 126.167 72.6693 126.395 72.3573C126.629 72.0453 126.746 71.6823 126.746 71.2683C126.746 70.8303 126.62 70.4553 126.368 70.1433C126.122 69.8313 125.783 69.5913 125.351 69.4233C124.919 69.2553 124.433 69.1653 123.893 69.1533L122.687 69.1173V67.3353L123.803 67.2903C124.319 67.2723 124.772 67.1733 125.162 66.9933C125.558 66.8133 125.867 66.5763 126.089 66.2823C126.311 65.9883 126.422 65.6583 126.422 65.2923C126.422 64.9563 126.317 64.6533 126.107 64.3833C125.903 64.1133 125.612 63.9033 125.234 63.7533C124.856 63.5973 124.409 63.5193 123.893 63.5193C123.455 63.5193 123.044 63.5973 122.66 63.7533C122.276 63.9093 121.958 64.1613 121.706 64.5093C121.46 64.8513 121.325 65.3013 121.301 65.8593H119.177ZM130.741 77.3703L131.767 75.0213L130.912 74.9583V72.6633H133.306V74.6703L131.623 77.3703H130.741ZM140.555 61.7733C141.419 61.7733 142.193 61.9143 142.877 62.1963C143.561 62.4723 144.101 62.8803 144.497 63.4203C144.899 63.9543 145.1 64.6083 145.1 65.3823C145.1 66.0723 144.914 66.6543 144.542 67.1283C144.17 67.5963 143.699 67.9563 143.129 68.2083C143.543 68.2923 143.945 68.4933 144.335 68.8113C144.725 69.1233 145.046 69.5073 145.298 69.9633C145.55 70.4193 145.676 70.8963 145.676 71.3943C145.676 72.1563 145.463 72.8193 145.037 73.3833C144.617 73.9473 144.02 74.3853 143.246 74.6973C142.478 75.0033 141.581 75.1563 140.555 75.1563C139.529 75.1563 138.632 75.0033 137.864 74.6973C137.102 74.3853 136.508 73.9473 136.082 73.3833C135.656 72.8193 135.443 72.1563 135.443 71.3943C135.443 70.8963 135.566 70.4193 135.812 69.9633C136.064 69.5073 136.385 69.1233 136.775 68.8113C137.165 68.4933 137.567 68.2923 137.981 68.2083C137.423 67.9563 136.955 67.5963 136.577 67.1283C136.199 66.6543 136.01 66.0723 136.01 65.3823C136.01 64.6083 136.208 63.9543 136.604 63.4203C137 62.8803 137.54 62.4723 138.224 62.1963C138.914 61.9143 139.691 61.7733 140.555 61.7733ZM140.555 67.3353C141.239 67.3353 141.797 67.1613 142.229 66.8133C142.667 66.4593 142.886 65.9673 142.886 65.3373C142.886 64.7133 142.667 64.2183 142.229 63.8523C141.791 63.4863 141.233 63.3033 140.555 63.3033C139.877 63.3033 139.316 63.4863 138.872 63.8523C138.434 64.2183 138.215 64.7133 138.215 65.3373C138.215 65.9673 138.434 66.4593 138.872 66.8133C139.316 67.1613 139.877 67.3353 140.555 67.3353ZM140.555 73.4643C141.413 73.4643 142.091 73.2723 142.589 72.8883C143.087 72.5043 143.336 71.9913 143.336 71.3493C143.336 70.9233 143.222 70.5483 142.994 70.2243C142.766 69.8943 142.445 69.6363 142.031 69.4503C141.617 69.2643 141.125 69.1713 140.555 69.1713C139.991 69.1713 139.499 69.2643 139.079 69.4503C138.665 69.6363 138.344 69.8943 138.116 70.2243C137.894 70.5483 137.783 70.9233 137.783 71.3493C137.783 71.9913 138.032 72.5043 138.53 72.8883C139.034 73.2723 139.709 73.4643 140.555 73.4643ZM147 61.9533H156.459V63.7803C156.021 64.3503 155.586 65.0103 155.154 65.7603C154.722 66.5043 154.308 67.2933 153.912 68.1273C153.516 68.9553 153.162 69.7863 152.85 70.6203C152.538 71.4483 152.283 72.2373 152.085 72.9873C151.887 73.7373 151.767 74.3973 151.725 74.9673H149.358C149.43 74.4093 149.574 73.7133 149.79 72.8793C150.012 72.0393 150.315 71.1153 150.699 70.1073C151.083 69.0933 151.56 68.0463 152.13 66.9663C152.7 65.8863 153.366 64.8243 154.128 63.7803H147V61.9533ZM163.717 61.9533H165.895V70.0173H167.974V71.8803H165.895V74.9673H163.771L163.78 71.8803H157.723V70.0173L163.717 61.9533ZM159.775 70.0173H163.762V64.6713L159.775 70.0173ZM169.442 74.9673V72.4473H171.917V74.9673H169.442ZM178.397 75.1653C177.635 75.1653 176.921 75.0183 176.255 74.7243C175.589 74.4303 175.04 74.0133 174.608 73.4733C174.176 72.9333 173.924 72.2973 173.852 71.5653H175.949C176.075 72.1113 176.348 72.5553 176.768 72.8973C177.188 73.2333 177.704 73.4013 178.316 73.4013C179.006 73.4013 179.603 73.2303 180.107 72.8883C180.617 72.5463 180.998 72.0093 181.25 71.2773C181.502 70.5453 181.595 69.5943 181.529 68.4243C181.367 68.8083 181.13 69.1443 180.818 69.4323C180.512 69.7203 180.146 69.9453 179.72 70.1073C179.3 70.2633 178.832 70.3413 178.316 70.3413C177.446 70.3413 176.675 70.1763 176.003 69.8463C175.337 69.5103 174.815 69.0333 174.437 68.4153C174.059 67.7913 173.87 67.0533 173.87 66.2013C173.87 65.3373 174.062 64.5723 174.446 63.9063C174.836 63.2403 175.382 62.7183 176.084 62.3403C176.792 61.9623 177.623 61.7733 178.577 61.7733C179.639 61.7733 180.557 62.0343 181.331 62.5563C182.105 63.0783 182.699 63.8223 183.113 64.7883C183.533 65.7543 183.743 66.9003 183.743 68.2263C183.743 69.7383 183.53 71.0103 183.104 72.0423C182.684 73.0683 182.075 73.8453 181.277 74.3733C180.485 74.9013 179.525 75.1653 178.397 75.1653ZM178.64 68.5593C179.06 68.5593 179.462 68.4633 179.846 68.2713C180.23 68.0793 180.545 67.8303 180.791 67.5243C181.037 67.2183 181.16 66.8943 181.16 66.5523C181.166 65.9283 181.064 65.3883 180.854 64.9323C180.644 64.4703 180.347 64.1133 179.963 63.8613C179.585 63.6033 179.141 63.4743 178.631 63.4743C178.169 63.4743 177.755 63.5853 177.389 63.8073C177.029 64.0293 176.747 64.3383 176.543 64.7343C176.339 65.1243 176.237 65.5773 176.237 66.0933C176.237 66.8613 176.45 67.4643 176.876 67.9023C177.302 68.3403 177.89 68.5593 178.64 68.5593ZM190.407 61.7733C191.271 61.7733 192.045 61.9143 192.729 62.1963C193.413 62.4723 193.953 62.8803 194.349 63.4203C194.751 63.9543 194.952 64.6083 194.952 65.3823C194.952 66.0723 194.766 66.6543 194.394 67.1283C194.022 67.5963 193.551 67.9563 192.981 68.2083C193.395 68.2923 193.797 68.4933 194.187 68.8113C194.577 69.1233 194.898 69.5073 195.15 69.9633C195.402 70.4193 195.528 70.8963 195.528 71.3943C195.528 72.1563 195.315 72.8193 194.889 73.3833C194.469 73.9473 193.872 74.3853 193.098 74.6973C192.33 75.0033 191.433 75.1563 190.407 75.1563C189.381 75.1563 188.484 75.0033 187.716 74.6973C186.954 74.3853 186.36 73.9473 185.934 73.3833C185.508 72.8193 185.295 72.1563 185.295 71.3943C185.295 70.8963 185.418 70.4193 185.664 69.9633C185.916 69.5073 186.237 69.1233 186.627 68.8113C187.017 68.4933 187.419 68.2923 187.833 68.2083C187.275 67.9563 186.807 67.5963 186.429 67.1283C186.051 66.6543 185.862 66.0723 185.862 65.3823C185.862 64.6083 186.06 63.9543 186.456 63.4203C186.852 62.8803 187.392 62.4723 188.076 62.1963C188.766 61.9143 189.543 61.7733 190.407 61.7733ZM190.407 67.3353C191.091 67.3353 191.649 67.1613 192.081 66.8133C192.519 66.4593 192.738 65.9673 192.738 65.3373C192.738 64.7133 192.519 64.2183 192.081 63.8523C191.643 63.4863 191.085 63.3033 190.407 63.3033C189.729 63.3033 189.168 63.4863 188.724 63.8523C188.286 64.2183 188.067 64.7133 188.067 65.3373C188.067 65.9673 188.286 66.4593 188.724 66.8133C189.168 67.1613 189.729 67.3353 190.407 67.3353ZM190.407 73.4643C191.265 73.4643 191.943 73.2723 192.441 72.8883C192.939 72.5043 193.188 71.9913 193.188 71.3493C193.188 70.9233 193.074 70.5483 192.846 70.2243C192.618 69.8943 192.297 69.6363 191.883 69.4503C191.469 69.2643 190.977 69.1713 190.407 69.1713C189.843 69.1713 189.351 69.2643 188.931 69.4503C188.517 69.6363 188.196 69.8943 187.968 70.2243C187.746 70.5483 187.635 70.9233 187.635 71.3493C187.635 71.9913 187.884 72.5043 188.382 72.8883C188.886 73.2723 189.561 73.4643 190.407 73.4643Z" fill="#333333"/>
<path d="M89.322 40.3204V39.1304H96.98V40.3204H93.893V49.2524H92.591V40.3204H89.322ZM100.29 49.3924C99.6225 49.3924 99.0391 49.2501 98.5398 48.9654C98.0405 48.6761 97.6531 48.2538 97.3778 47.6984C97.1025 47.1431 96.9648 46.4641 96.9648 45.6614C96.9648 44.9054 97.0931 44.2428 97.3498 43.6734C97.6065 43.1041 97.9821 42.6631 98.4768 42.3504C98.9761 42.0331 99.5805 41.8744 100.29 41.8744C100.957 41.8744 101.536 42.0214 102.026 42.3154C102.52 42.6048 102.903 43.0318 103.174 43.5964C103.444 44.1611 103.58 44.8494 103.58 45.6614C103.58 46.3988 103.454 47.0474 103.202 47.6074C102.954 48.1674 102.586 48.6061 102.096 48.9234C101.61 49.2361 101.008 49.3924 100.29 49.3924ZM100.29 48.3704C100.724 48.3704 101.09 48.2608 101.389 48.0414C101.687 47.8221 101.914 47.5071 102.068 47.0964C102.222 46.6858 102.299 46.1981 102.299 45.6334C102.299 45.1154 102.231 44.6511 102.096 44.2404C101.96 43.8251 101.743 43.4961 101.445 43.2534C101.151 43.0108 100.766 42.8894 100.29 42.8894C99.8511 42.8894 99.4801 42.9991 99.1768 43.2184C98.8735 43.4331 98.6425 43.7458 98.4838 44.1564C98.3298 44.5671 98.2528 45.0594 98.2528 45.6334C98.2528 46.1421 98.3228 46.6041 98.4628 47.0194C98.6028 47.4348 98.8221 47.7638 99.1208 48.0064C99.4195 48.2491 99.8091 48.3704 100.29 48.3704ZM108.719 42.9594H107.088V47.4604C107.088 47.7171 107.114 47.9061 107.165 48.0274C107.221 48.1441 107.312 48.2188 107.438 48.2514C107.569 48.2841 107.746 48.3004 107.97 48.3004H108.761V49.1684C108.672 49.2011 108.537 49.2291 108.355 49.2524C108.178 49.2758 107.956 49.2874 107.69 49.2874C107.191 49.2874 106.803 49.2198 106.528 49.0844C106.253 48.9491 106.059 48.7484 105.947 48.4824C105.84 48.2164 105.786 47.8898 105.786 47.5024V42.9594H104.61V42.0144H105.821L106.136 39.9074H107.088V42.0074H108.719V42.9594ZM112.54 49.3924C112.073 49.3924 111.66 49.3108 111.301 49.1474C110.941 48.9794 110.659 48.7391 110.454 48.4264C110.253 48.1138 110.153 47.7358 110.153 47.2924C110.153 46.4898 110.433 45.8924 110.993 45.5004C111.553 45.1084 112.451 44.8984 113.688 44.8704L114.983 44.8354V44.2684C114.983 43.8251 114.85 43.4751 114.584 43.2184C114.318 42.9571 113.905 42.8264 113.345 42.8264C112.929 42.8311 112.563 42.9291 112.246 43.1204C111.933 43.3118 111.73 43.6244 111.637 44.0584H110.496C110.524 43.5871 110.657 43.1904 110.895 42.8684C111.133 42.5418 111.464 42.2944 111.889 42.1264C112.318 41.9584 112.824 41.8744 113.408 41.8744C114.038 41.8744 114.56 41.9631 114.976 42.1404C115.396 42.3178 115.708 42.5791 115.914 42.9244C116.124 43.2698 116.229 43.6944 116.229 44.1984V49.2524H115.123L115.032 47.8944C114.752 48.4591 114.395 48.8511 113.961 49.0704C113.531 49.2851 113.058 49.3924 112.54 49.3924ZM112.932 48.4614C113.174 48.4614 113.415 48.4171 113.653 48.3284C113.895 48.2398 114.117 48.1208 114.318 47.9714C114.518 47.8174 114.677 47.6471 114.794 47.4604C114.915 47.2691 114.978 47.0731 114.983 46.8724V45.6334L113.905 45.6544C113.354 45.6638 112.892 45.7198 112.519 45.8224C112.15 45.9251 111.872 46.0861 111.686 46.3054C111.504 46.5248 111.413 46.8118 111.413 47.1664C111.413 47.5724 111.553 47.8898 111.833 48.1184C112.117 48.3471 112.484 48.4614 112.932 48.4614ZM120.267 49.3434C119.875 49.3434 119.558 49.2898 119.315 49.1824C119.077 49.0751 118.893 48.9304 118.762 48.7484C118.636 48.5664 118.55 48.3588 118.503 48.1254C118.461 47.8874 118.44 47.6424 118.44 47.3904V38.8504H119.714V47.2644C119.714 47.6284 119.784 47.9014 119.924 48.0834C120.069 48.2654 120.269 48.3658 120.526 48.3844L120.918 48.3914V49.2314C120.811 49.2641 120.699 49.2898 120.582 49.3084C120.465 49.3318 120.36 49.3434 120.267 49.3434ZM129.54 49.3924C129.064 49.3924 128.602 49.3341 128.154 49.2174C127.706 49.0961 127.3 48.9164 126.936 48.6784C126.572 48.4404 126.268 48.1464 126.026 47.7964C125.788 47.4418 125.638 47.0311 125.578 46.5644H126.936C127.02 46.9471 127.185 47.2691 127.433 47.5304C127.685 47.7918 127.99 47.9878 128.35 48.1184C128.714 48.2491 129.108 48.3144 129.533 48.3144C130.009 48.3144 130.433 48.2491 130.807 48.1184C131.185 47.9831 131.481 47.7918 131.696 47.5444C131.915 47.2971 132.025 47.0008 132.025 46.6554C132.025 46.3521 131.955 46.0884 131.815 45.8644C131.679 45.6404 131.481 45.4538 131.22 45.3044C130.958 45.1551 130.641 45.0384 130.268 44.9544L128.28 44.4924C127.533 44.3291 126.947 44.0374 126.523 43.6174C126.103 43.1974 125.888 42.6421 125.879 41.9514C125.879 41.3681 126.033 40.8548 126.341 40.4114C126.653 39.9681 127.08 39.6228 127.622 39.3754C128.168 39.1281 128.791 39.0044 129.491 39.0044C130.298 39.0044 130.977 39.1421 131.528 39.4174C132.078 39.6928 132.494 40.0544 132.774 40.5024C133.054 40.9504 133.196 41.4288 133.201 41.9374H131.864C131.822 41.4801 131.686 41.1184 131.458 40.8524C131.234 40.5818 130.951 40.3904 130.611 40.2784C130.27 40.1618 129.899 40.1034 129.498 40.1034C129.208 40.1034 128.928 40.1408 128.658 40.2154C128.392 40.2854 128.151 40.3928 127.937 40.5374C127.727 40.6821 127.559 40.8618 127.433 41.0764C127.307 41.2911 127.244 41.5408 127.244 41.8254C127.244 42.1894 127.367 42.4858 127.615 42.7144C127.867 42.9431 128.322 43.1391 128.98 43.3024L130.905 43.7644C131.409 43.8718 131.819 44.0304 132.137 44.2404C132.459 44.4504 132.706 44.6884 132.879 44.9544C133.056 45.2204 133.177 45.4981 133.243 45.7874C133.313 46.0768 133.348 46.3614 133.348 46.6414C133.348 47.1501 133.196 47.6144 132.893 48.0344C132.589 48.4498 132.153 48.7811 131.584 49.0284C131.019 49.2711 130.338 49.3924 129.54 49.3924ZM137.218 49.3924C136.751 49.3924 136.338 49.3108 135.979 49.1474C135.619 48.9794 135.337 48.7391 135.132 48.4264C134.931 48.1138 134.831 47.7358 134.831 47.2924C134.831 46.4898 135.111 45.8924 135.671 45.5004C136.231 45.1084 137.129 44.8984 138.366 44.8704L139.661 44.8354V44.2684C139.661 43.8251 139.528 43.4751 139.262 43.2184C138.996 42.9571 138.583 42.8264 138.023 42.8264C137.607 42.8311 137.241 42.9291 136.924 43.1204C136.611 43.3118 136.408 43.6244 136.315 44.0584H135.174C135.202 43.5871 135.335 43.1904 135.573 42.8684C135.811 42.5418 136.142 42.2944 136.567 42.1264C136.996 41.9584 137.502 41.8744 138.086 41.8744C138.716 41.8744 139.238 41.9631 139.654 42.1404C140.074 42.3178 140.386 42.5791 140.592 42.9244C140.802 43.2698 140.907 43.6944 140.907 44.1984V49.2524H139.801L139.71 47.8944C139.43 48.4591 139.073 48.8511 138.639 49.0704C138.209 49.2851 137.736 49.3924 137.218 49.3924ZM137.61 48.4614C137.852 48.4614 138.093 48.4171 138.331 48.3284C138.573 48.2398 138.795 48.1208 138.996 47.9714C139.196 47.8174 139.355 47.6471 139.472 47.4604C139.593 47.2691 139.656 47.0731 139.661 46.8724V45.6334L138.583 45.6544C138.032 45.6638 137.57 45.7198 137.197 45.8224C136.828 45.9251 136.55 46.0861 136.364 46.3054C136.182 46.5248 136.091 46.8118 136.091 47.1664C136.091 47.5724 136.231 47.8898 136.511 48.1184C136.795 48.3471 137.162 48.4614 137.61 48.4614ZM144.945 49.3434C144.553 49.3434 144.236 49.2898 143.993 49.1824C143.755 49.0751 143.571 48.9304 143.44 48.7484C143.314 48.5664 143.228 48.3588 143.181 48.1254C143.139 47.8874 143.118 47.6424 143.118 47.3904V38.8504H144.392V47.2644C144.392 47.6284 144.462 47.9014 144.602 48.0834C144.747 48.2654 144.947 48.3658 145.204 48.3844L145.596 48.3914V49.2314C145.489 49.2641 145.377 49.2898 145.26 49.3084C145.143 49.3318 145.038 49.3434 144.945 49.3434ZM148.102 45.9344C148.102 46.3918 148.177 46.8071 148.326 47.1804C148.48 47.5491 148.711 47.8431 149.019 48.0624C149.332 48.2818 149.722 48.3914 150.188 48.3914C150.65 48.3914 151.047 48.2841 151.378 48.0694C151.714 47.8548 151.929 47.5444 152.022 47.1384H153.247C153.159 47.6284 152.963 48.0414 152.659 48.3774C152.356 48.7134 151.99 48.9678 151.56 49.1404C151.131 49.3084 150.683 49.3924 150.216 49.3924C149.54 49.3924 148.945 49.2454 148.431 48.9514C147.918 48.6574 147.517 48.2351 147.227 47.6844C146.938 47.1338 146.793 46.4734 146.793 45.7034C146.793 44.9428 146.924 44.2754 147.185 43.7014C147.447 43.1274 147.825 42.6794 148.319 42.3574C148.819 42.0354 149.418 41.8744 150.118 41.8744C150.8 41.8744 151.376 42.0214 151.847 42.3154C152.319 42.6094 152.676 43.0248 152.918 43.5614C153.166 44.0934 153.289 44.7258 153.289 45.4584V45.9344H148.102ZM148.109 45.0594H152.043C152.043 44.6441 151.973 44.2708 151.833 43.9394C151.693 43.6034 151.479 43.3398 151.189 43.1484C150.905 42.9524 150.545 42.8544 150.111 42.8544C149.659 42.8544 149.283 42.9641 148.984 43.1834C148.69 43.3981 148.469 43.6758 148.319 44.0164C148.175 44.3524 148.105 44.7001 148.109 45.0594ZM157.595 49.3924C157.091 49.3924 156.622 49.3154 156.188 49.1614C155.759 49.0028 155.402 48.7578 155.117 48.4264C154.832 48.0904 154.653 47.6634 154.578 47.1454H155.754C155.819 47.4301 155.936 47.6681 156.104 47.8594C156.277 48.0461 156.491 48.1884 156.748 48.2864C157.005 48.3798 157.285 48.4264 157.588 48.4264C158.073 48.4264 158.465 48.3354 158.764 48.1534C159.063 47.9714 159.212 47.6914 159.212 47.3134C159.212 47.0474 159.133 46.8351 158.974 46.6764C158.82 46.5131 158.58 46.3941 158.253 46.3194L156.755 45.9484C156.172 45.8084 155.705 45.5891 155.355 45.2904C155.005 44.9918 154.83 44.5741 154.83 44.0374C154.825 43.6128 154.926 43.2394 155.131 42.9174C155.336 42.5954 155.644 42.3411 156.055 42.1544C156.466 41.9678 156.977 41.8744 157.588 41.8744C158.372 41.8744 159.004 42.0518 159.485 42.4064C159.97 42.7564 160.222 43.2721 160.241 43.9534H159.1C159.053 43.6081 158.897 43.3351 158.631 43.1344C158.37 42.9291 158.017 42.8264 157.574 42.8264C157.112 42.8264 156.736 42.9198 156.447 43.1064C156.158 43.2884 156.013 43.5731 156.013 43.9604C156.013 44.2171 156.116 44.4201 156.321 44.5694C156.526 44.7141 156.83 44.8354 157.231 44.9334L158.68 45.2974C159.016 45.3861 159.291 45.5028 159.506 45.6474C159.725 45.7921 159.898 45.9531 160.024 46.1304C160.155 46.3078 160.246 46.4944 160.297 46.6904C160.353 46.8818 160.381 47.0661 160.381 47.2434C160.381 47.6868 160.269 48.0694 160.045 48.3914C159.826 48.7088 159.508 48.9561 159.093 49.1334C158.682 49.3061 158.183 49.3924 157.595 49.3924Z" fill="#828282"/>
<path d="M105.333 91.2534L98.9993 97.5868L95.666 94.2534L90.666 99.2534" stroke="#4BDE97" stroke-linecap="round" stroke-linejoin="round"/>
<path d="M101.334 91.2534H105.334V95.2534" stroke="#4BDE97" stroke-linecap="round" stroke-linejoin="round"/>
<path d="M114.678 90.4574C115.618 90.4574 116.366 90.8354 116.922 91.5914C117.482 92.3434 117.762 93.4574 117.762 94.9334C117.762 96.4014 117.484 97.5114 116.928 98.2634C116.372 99.0114 115.618 99.3854 114.666 99.3854C113.718 99.3854 112.966 99.0134 112.41 98.2694C111.854 97.5214 111.576 96.4154 111.576 94.9514C111.576 93.9634 111.704 93.1354 111.96 92.4674C112.216 91.7994 112.576 91.2974 113.04 90.9614C113.504 90.6254 114.05 90.4574 114.678 90.4574ZM114.678 98.4254C115.298 98.4254 115.766 98.1534 116.082 97.6094C116.402 97.0614 116.562 96.1714 116.562 94.9394C116.562 93.6834 116.4 92.7794 116.076 92.2274C115.756 91.6714 115.288 91.3934 114.672 91.3934C114.06 91.3934 113.588 91.6734 113.256 92.2334C112.928 92.7894 112.764 93.6914 112.764 94.9394C112.764 96.1674 112.928 97.0554 113.256 97.6034C113.584 98.1514 114.058 98.4254 114.678 98.4254ZM119.008 99.2534V97.8374H120.328V99.2534H119.008ZM122.033 99.2534V98.5754V98.2214C122.033 97.7774 122.115 97.3934 122.279 97.0694C122.447 96.7454 122.667 96.4634 122.939 96.2234C123.215 95.9794 123.515 95.7614 123.839 95.5694C124.167 95.3774 124.493 95.1934 124.817 95.0174C125.145 94.8374 125.445 94.6514 125.717 94.4594C125.989 94.2634 126.207 94.0434 126.371 93.7994C126.539 93.5514 126.623 93.2594 126.623 92.9234C126.623 92.4834 126.467 92.1254 126.155 91.8494C125.847 91.5734 125.429 91.4354 124.901 91.4354C124.333 91.4354 123.877 91.5954 123.533 91.9154C123.189 92.2354 122.995 92.6614 122.951 93.1934H121.847C121.859 92.6934 121.983 92.2374 122.219 91.8254C122.455 91.4094 122.801 91.0774 123.257 90.8294C123.713 90.5814 124.275 90.4574 124.943 90.4574C125.523 90.4574 126.027 90.5614 126.455 90.7694C126.883 90.9734 127.213 91.2614 127.445 91.6334C127.681 92.0014 127.799 92.4314 127.799 92.9234C127.799 93.3714 127.717 93.7554 127.553 94.0754C127.389 94.3954 127.171 94.6734 126.899 94.9094C126.631 95.1414 126.337 95.3494 126.017 95.5334C125.697 95.7174 125.375 95.8954 125.051 96.0674C124.727 96.2354 124.431 96.4134 124.163 96.6014C123.895 96.7854 123.679 96.9974 123.515 97.2374C123.351 97.4774 123.269 97.7634 123.269 98.0954V98.2694H127.847V99.2534H122.033ZM133.04 90.5774H134.168V96.0614H135.608V97.0394H134.168V99.2534H133.082V97.0394H128.996V96.0254L133.04 90.5774ZM130.058 96.0614H133.058V92.0354L130.058 96.0614ZM138.684 90.4454C139.072 90.4454 139.42 90.5474 139.728 90.7514C140.036 90.9554 140.278 91.2434 140.454 91.6154C140.63 91.9874 140.718 92.4254 140.718 92.9294C140.718 93.4334 140.63 93.8694 140.454 94.2374C140.282 94.6054 140.042 94.8914 139.734 95.0954C139.426 95.2954 139.076 95.3954 138.684 95.3954C138.288 95.3954 137.934 95.2954 137.622 95.0954C137.314 94.8914 137.07 94.6054 136.89 94.2374C136.71 93.8694 136.62 93.4334 136.62 92.9294C136.62 92.4254 136.71 91.9874 136.89 91.6154C137.07 91.2434 137.314 90.9554 137.622 90.7514C137.934 90.5474 138.288 90.4454 138.684 90.4454ZM138.672 94.7774C139.056 94.7774 139.35 94.6074 139.554 94.2674C139.762 93.9274 139.866 93.4814 139.866 92.9294C139.866 92.3694 139.762 91.9194 139.554 91.5794C139.346 91.2354 139.052 91.0634 138.672 91.0634C138.416 91.0634 138.198 91.1434 138.018 91.3034C137.842 91.4594 137.706 91.6774 137.61 91.9574C137.518 92.2374 137.472 92.5614 137.472 92.9294C137.472 93.4774 137.576 93.9234 137.784 94.2674C137.992 94.6074 138.288 94.7774 138.672 94.7774ZM144.114 94.4114C144.506 94.4114 144.856 94.5154 145.164 94.7234C145.472 94.9274 145.714 95.2154 145.89 95.5874C146.066 95.9594 146.154 96.3954 146.154 96.8954C146.154 97.3994 146.066 97.8374 145.89 98.2094C145.718 98.5814 145.478 98.8694 145.17 99.0734C144.862 99.2734 144.51 99.3734 144.114 99.3734C143.718 99.3734 143.364 99.2734 143.052 99.0734C142.74 98.8694 142.496 98.5814 142.32 98.2094C142.144 97.8374 142.056 97.3994 142.056 96.8954C142.056 96.3954 142.144 95.9594 142.32 95.5874C142.5 95.2154 142.746 94.9274 143.058 94.7234C143.37 94.5154 143.722 94.4114 144.114 94.4114ZM144.102 98.7434C144.35 98.7434 144.564 98.6654 144.744 98.5094C144.924 98.3494 145.062 98.1314 145.158 97.8554C145.254 97.5794 145.302 97.2634 145.302 96.9074C145.302 96.5434 145.252 96.2214 145.152 95.9414C145.056 95.6574 144.918 95.4354 144.738 95.2754C144.558 95.1154 144.346 95.0354 144.102 95.0354C143.858 95.0354 143.646 95.1174 143.466 95.2814C143.286 95.4414 143.148 95.6634 143.052 95.9474C142.956 96.2274 142.908 96.5474 142.908 96.9074C142.908 97.2634 142.956 97.5794 143.052 97.8554C143.148 98.1314 143.284 98.3494 143.46 98.5094C143.64 98.6654 143.854 98.7434 144.102 98.7434ZM144.612 90.4814L138.78 99.3014L138.03 99.2954L143.886 90.4814H144.612Z" fill="#4BDE97"/>
<path d="M157.276 90.5974V89.5774H163.84V90.5974H161.194V98.2534H160.078V90.5974H157.276ZM165.043 98.2534V89.3374H166.123V92.9614C166.227 92.7894 166.367 92.6294 166.543 92.4814C166.719 92.3294 166.933 92.2074 167.185 92.1154C167.437 92.0194 167.729 91.9714 168.061 91.9714C168.465 91.9714 168.831 92.0474 169.159 92.1994C169.487 92.3474 169.747 92.5594 169.939 92.8354C170.131 93.1114 170.227 93.4394 170.227 93.8194V98.2534H169.117V94.0414C169.117 93.6694 168.989 93.3834 168.733 93.1834C168.481 92.9794 168.151 92.8774 167.743 92.8774C167.467 92.8774 167.207 92.9234 166.963 93.0154C166.719 93.1034 166.521 93.2394 166.369 93.4234C166.221 93.6034 166.147 93.8334 166.147 94.1134V98.2534H165.043ZM173.157 92.0494V98.2534H172.083V92.0494H173.157ZM173.181 89.5834V90.7354H172.047V89.5834H173.181ZM177.311 98.3734C176.879 98.3734 176.477 98.3074 176.105 98.1754C175.737 98.0394 175.431 97.8294 175.187 97.5454C174.943 97.2574 174.789 96.8914 174.725 96.4474H175.733C175.789 96.6914 175.889 96.8954 176.033 97.0594C176.181 97.2194 176.365 97.3414 176.585 97.4254C176.805 97.5054 177.045 97.5454 177.305 97.5454C177.721 97.5454 178.057 97.4674 178.313 97.3114C178.569 97.1554 178.697 96.9154 178.697 96.5914C178.697 96.3634 178.629 96.1814 178.493 96.0454C178.361 95.9054 178.155 95.8034 177.875 95.7394L176.591 95.4214C176.091 95.3014 175.691 95.1134 175.391 94.8574C175.091 94.6014 174.941 94.2434 174.941 93.7834C174.937 93.4194 175.023 93.0994 175.199 92.8234C175.375 92.5474 175.639 92.3294 175.991 92.1694C176.343 92.0094 176.781 91.9294 177.305 91.9294C177.977 91.9294 178.519 92.0814 178.931 92.3854C179.347 92.6854 179.563 93.1274 179.579 93.7114H178.601C178.561 93.4154 178.427 93.1814 178.199 93.0094C177.975 92.8334 177.673 92.7454 177.293 92.7454C176.897 92.7454 176.575 92.8254 176.327 92.9854C176.079 93.1414 175.955 93.3854 175.955 93.7174C175.955 93.9374 176.043 94.1114 176.219 94.2394C176.395 94.3634 176.655 94.4674 176.999 94.5514L178.241 94.8634C178.529 94.9394 178.765 95.0394 178.949 95.1634C179.137 95.2874 179.285 95.4254 179.393 95.5774C179.505 95.7294 179.583 95.8894 179.627 96.0574C179.675 96.2214 179.699 96.3794 179.699 96.5314C179.699 96.9114 179.603 97.2394 179.411 97.5154C179.223 97.7874 178.951 97.9994 178.595 98.1514C178.243 98.2994 177.815 98.3734 177.311 98.3734ZM184.197 98.2534V89.5774H185.733L188.349 96.7414L191.001 89.5774H192.531V98.2534H191.385V91.2394L188.871 98.2534H187.833L185.337 91.3054V98.2534H184.197ZM196.982 98.3734C196.41 98.3734 195.91 98.2514 195.482 98.0074C195.054 97.7594 194.722 97.3974 194.486 96.9214C194.25 96.4454 194.132 95.8634 194.132 95.1754C194.132 94.5274 194.242 93.9594 194.462 93.4714C194.682 92.9834 195.004 92.6054 195.428 92.3374C195.856 92.0654 196.374 91.9294 196.982 91.9294C197.554 91.9294 198.05 92.0554 198.47 92.3074C198.894 92.5554 199.222 92.9214 199.454 93.4054C199.686 93.8894 199.802 94.4794 199.802 95.1754C199.802 95.8074 199.694 96.3634 199.478 96.8434C199.266 97.3234 198.95 97.6994 198.53 97.9714C198.114 98.2394 197.598 98.3734 196.982 98.3734ZM196.982 97.4974C197.354 97.4974 197.668 97.4034 197.924 97.2154C198.18 97.0274 198.374 96.7574 198.506 96.4054C198.638 96.0534 198.704 95.6354 198.704 95.1514C198.704 94.7074 198.646 94.3094 198.53 93.9574C198.414 93.6014 198.228 93.3194 197.972 93.1114C197.72 92.9034 197.39 92.7994 196.982 92.7994C196.606 92.7994 196.288 92.8934 196.028 93.0814C195.768 93.2654 195.57 93.5334 195.434 93.8854C195.302 94.2374 195.236 94.6594 195.236 95.1514C195.236 95.5874 195.296 95.9834 195.416 96.3394C195.536 96.6954 195.724 96.9774 195.98 97.1854C196.236 97.3934 196.57 97.4974 196.982 97.4974ZM201.254 98.2534V92.0494H202.328V92.9494C202.428 92.7774 202.566 92.6154 202.742 92.4634C202.922 92.3114 203.138 92.1894 203.39 92.0974C203.646 92.0054 203.94 91.9594 204.272 91.9594C204.664 91.9594 205.024 92.0374 205.352 92.1934C205.684 92.3494 205.948 92.5934 206.144 92.9254C206.344 93.2534 206.444 93.6774 206.444 94.1974V98.2534H205.334V94.3054C205.334 93.8214 205.206 93.4634 204.95 93.2314C204.698 92.9954 204.37 92.8774 203.966 92.8774C203.686 92.8774 203.424 92.9234 203.18 93.0154C202.936 93.1034 202.738 93.2394 202.586 93.4234C202.434 93.6034 202.358 93.8314 202.358 94.1074V98.2534H201.254ZM211.039 92.8594H209.641V96.7174C209.641 96.9374 209.663 97.0994 209.707 97.2034C209.755 97.3034 209.833 97.3674 209.941 97.3954C210.053 97.4234 210.205 97.4374 210.397 97.4374H211.075V98.1814C210.999 98.2094 210.883 98.2334 210.727 98.2534C210.575 98.2734 210.385 98.2834 210.157 98.2834C209.729 98.2834 209.397 98.2254 209.161 98.1094C208.925 97.9934 208.759 97.8214 208.663 97.5934C208.571 97.3654 208.525 97.0854 208.525 96.7534V92.8594H207.517V92.0494H208.555L208.825 90.2434H209.641V92.0434H211.039V92.8594ZM212.633 98.2534V89.3374H213.713V92.9614C213.817 92.7894 213.957 92.6294 214.133 92.4814C214.309 92.3294 214.523 92.2074 214.775 92.1154C215.027 92.0194 215.319 91.9714 215.651 91.9714C216.055 91.9714 216.421 92.0474 216.749 92.1994C217.077 92.3474 217.337 92.5594 217.529 92.8354C217.721 93.1114 217.817 93.4394 217.817 93.8194V98.2534H216.707V94.0414C216.707 93.6694 216.579 93.3834 216.323 93.1834C216.071 92.9794 215.741 92.8774 215.333 92.8774C215.057 92.8774 214.797 92.9234 214.553 93.0154C214.309 93.1034 214.111 93.2394 213.959 93.4234C213.811 93.6034 213.737 93.8334 213.737 94.1134V98.2534H212.633Z" fill="#828282"/>
<ellipse opacity="0.15" cx="47" cy="52.2119" rx="18" ry="13.9594" fill="#FFB648"/>
<path d="M48 44.457H41C40.4696 44.457 39.9609 44.6204 39.5858 44.9113C39.2107 45.2022 39 45.5967 39 46.0081V58.4165C39 58.8278 39.2107 59.2224 39.5858 59.5132C39.9609 59.8041 40.4696 59.9675 41 59.9675H53C53.5304 59.9675 54.0391 59.8041 54.4142 59.5132C54.7893 59.2224 55 58.8278 55 58.4165V49.8857L48 44.457Z" stroke="#FFB648" stroke-width="2" stroke-linecap="round" stroke-linejoin="round"/>
<path d="M48 44.457V49.8857H55" stroke="#FFB648" stroke-width="2" stroke-linecap="round" stroke-linejoin="round"/>
<defs>
<filter id="filter0_d_140_1845" x="0" y="0" width="262" height="162" filterUnits="userSpaceOnUse" color-interpolation-filters="sRGB">
<feFlood flood-opacity="0" result="BackgroundImageFix"/>
<feColorMatrix in="SourceAlpha" type="matrix" values="0 0 0 0 0 0 0 0 0 0 0 0 0 0 0 0 0 0 127 0" result="hardAlpha"/>
<feOffset dx="2" dy="4"/>
<feGaussianBlur stdDeviation="6"/>
<feComposite in2="hardAlpha" operator="out"/>
<feColorMatrix type="matrix" values="0 0 0 0 0 0 0 0 0 0 0 0 0 0 0 0 0 0 0.15 0"/>
<feBlend mode="normal" in2="BackgroundImageFix" result="effect1_dropShadow_140_1845"/>
<feBlend mode="normal" in="SourceGraphic" in2="effect1_dropShadow_140_1845" result="shape"/>
</filter>
</defs>
</svg>
